<?xml version="1.0" encoding="UTF-8" ?>
<!DOCTYPE svg PUBLIC "-//W3C//DTD SVG 1.1//EN" "http://www.w3.org/Graphics/SVG/1.1/DTD/svg11.dtd">
<svg width="762pt" height="765pt" viewBox="0 0 762 765" version="1.1" xmlns="http://www.w3.org/2000/svg">
<g id="#ffffffff">
<path fill="#ffffff" opacity="1.00" d=" M 210.37 446.44 C 219.67 446.62 228.96 445.99 238.25 446.36 C 238.18 452.97 239.10 459.56 241.13 465.86 C 241.79 467.56 242.51 469.24 243.25 470.93 C 249.04 484.03 260.81 493.73 273.99 498.86 C 275.04 499.22 276.10 499.57 277.16 499.93 C 278.42 500.37 279.69 500.75 280.97 501.19 C 294.47 504.56 308.81 504.28 322.14 500.27 C 335.98 495.75 348.70 486.72 355.83 473.83 C 360.21 466.23 362.43 457.53 362.81 448.79 C 363.26 449.83 363.72 450.86 364.21 451.90 C 365.02 461.04 364.71 470.50 361.10 479.07 C 355.67 493.06 344.23 504.24 330.95 510.91 C 327.91 512.47 324.65 513.48 321.46 514.65 C 318.43 515.84 315.02 515.74 312.11 517.31 C 307.69 517.50 303.28 518.63 298.86 517.94 C 293.64 517.23 288.28 518.13 283.13 516.91 C 274.78 515.84 266.65 513.44 258.86 510.27 C 254.83 508.39 250.81 506.46 247.01 504.15 C 235.21 496.93 224.83 487.07 218.22 474.83 C 216.46 471.75 215.15 468.47 213.87 465.18 C 213.57 464.13 213.26 463.10 212.95 462.07 C 212.57 460.75 212.19 459.44 211.77 458.14 C 211.56 456.74 211.37 455.34 211.15 453.96 C 210.31 451.54 210.51 448.95 210.37 446.44 Z" />
</g>
<g id="#000000ff">
<path fill="#000000" opacity="1.00" d=" M 492.13 101.96 C 497.74 100.15 503.53 98.98 509.24 97.54 C 508.82 101.03 508.12 104.48 507.02 107.82 C 505.28 113.25 503.02 118.48 500.94 123.78 C 499.04 129.63 496.72 135.33 494.00 140.84 C 492.06 145.34 489.47 149.54 487.94 154.21 C 516.28 160.08 545.37 157.40 574.06 157.34 C 576.06 157.26 579.68 157.71 579.37 160.41 C 570.85 173.25 559.43 183.76 548.93 194.93 C 544.91 199.02 540.94 203.16 537.03 207.35 C 537.08 207.77 537.20 208.61 537.26 209.02 C 546.12 213.04 554.46 218.11 562.83 223.05 C 577.81 231.90 592.02 242.10 604.99 253.71 C 617.81 264.37 627.12 278.56 634.92 293.15 C 639.00 300.30 642.65 307.69 645.99 315.21 C 647.05 317.50 648.03 319.83 648.97 322.18 C 649.73 323.82 650.39 325.49 650.99 327.20 C 652.12 329.79 653.08 332.46 653.99 335.15 C 656.83 343.25 658.96 351.58 660.75 359.98 C 660.37 360.38 659.61 361.19 659.23 361.59 C 655.83 362.82 652.19 362.63 648.65 362.87 C 653.55 372.27 661.37 379.79 667.98 387.98 C 669.23 390.39 668.43 394.01 665.66 394.93 C 655.73 399.77 644.80 401.89 634.47 405.66 C 634.93 407.49 635.44 409.31 635.96 411.13 C 637.03 413.78 637.99 416.47 638.92 419.18 C 640.27 422.50 641.69 425.79 642.92 429.17 C 643.53 430.32 644.15 431.49 644.85 432.61 C 640.13 433.77 635.47 435.17 630.68 436.01 C 632.19 448.00 635.00 460.04 633.29 472.19 C 629.41 471.84 625.51 471.68 621.63 471.38 C 623.39 474.84 625.85 477.90 627.40 481.49 C 633.82 495.30 633.50 511.49 629.04 525.84 C 628.69 526.84 628.34 527.84 628.00 528.85 C 626.21 533.15 624.58 537.50 623.03 541.88 C 618.74 552.26 609.49 559.86 599.76 564.99 C 596.55 566.57 593.24 567.91 589.85 569.03 C 584.90 570.82 579.74 571.80 574.58 572.73 C 566.82 581.67 557.78 589.50 547.84 595.94 C 546.39 596.87 544.95 597.83 543.54 598.83 L 542.02 597.27 L 542.79 599.24 C 541.74 599.73 540.69 600.24 539.66 600.76 C 536.24 602.87 532.51 604.44 528.76 605.86 C 527.14 606.64 525.46 607.29 523.75 607.84 C 521.55 608.78 519.30 609.57 517.03 610.31 C 511.62 611.30 506.63 613.75 501.45 615.51 C 489.39 619.61 477.01 622.70 464.56 625.39 C 455.84 627.67 446.76 627.92 437.93 629.58 C 428.06 631.24 418.03 631.37 408.06 630.82 C 394.01 631.19 379.96 630.26 365.91 630.11 C 348.43 629.50 331.04 627.46 313.78 624.71 C 286.07 620.89 258.83 614.24 232.13 605.98 C 222.34 603.08 212.67 599.75 203.19 595.95 C 196.34 593.45 189.82 590.15 183.10 587.37 C 180.73 585.99 178.18 587.52 175.81 588.02 C 161.29 591.75 145.61 592.37 131.16 588.00 C 130.13 587.67 129.11 587.35 128.10 587.04 C 121.54 584.58 115.30 581.34 109.19 577.94 C 99.83 573.45 92.19 565.93 86.96 557.01 C 83.23 550.53 79.01 544.06 77.57 536.60 C 75.72 522.78 75.97 508.57 79.94 495.13 C 80.27 494.11 80.60 493.09 80.94 492.08 C 83.52 484.50 87.81 477.46 93.68 471.98 C 98.14 467.41 104.39 464.75 108.10 459.44 C 109.36 455.66 107.95 451.74 107.21 448.00 C 100.71 415.82 95.70 382.76 99.42 349.90 C 101.49 334.13 104.25 318.45 107.88 302.97 C 109.67 292.78 113.38 283.07 116.97 273.42 C 119.12 268.07 121.91 263.00 125.04 258.17 C 134.81 242.70 146.77 228.64 160.05 216.08 C 165.42 211.18 170.78 206.28 176.41 201.68 C 177.63 200.81 178.50 199.59 179.37 198.39 C 177.88 183.26 173.84 168.50 169.98 153.83 C 169.11 149.95 166.52 144.82 169.39 141.36 C 169.81 141.33 170.63 141.28 171.04 141.25 C 176.82 144.54 182.17 148.56 187.83 152.07 C 196.09 156.48 202.69 163.26 208.99 170.06 C 209.63 170.75 210.28 171.46 210.92 172.16 L 212.16 172.38 C 214.06 162.72 216.92 153.20 220.96 144.20 C 222.63 140.32 224.75 136.66 227.06 133.13 C 231.95 126.14 237.92 120.00 243.44 113.51 C 245.65 110.26 248.28 114.64 250.23 115.95 C 250.86 127.25 252.57 138.46 253.13 149.76 C 259.10 148.35 263.18 143.40 267.97 139.93 C 273.98 135.62 280.48 131.99 287.26 129.03 C 290.48 127.56 293.74 126.16 297.10 125.00 C 313.87 118.64 331.84 112.97 349.98 115.42 C 348.91 118.88 347.72 122.31 346.90 125.84 C 353.08 124.21 358.95 121.58 365.15 120.01 C 371.44 118.16 377.76 116.32 384.19 115.03 C 389.46 113.74 394.74 112.46 400.10 111.66 C 402.78 112.16 404.84 115.75 403.18 118.18 C 400.54 123.35 397.16 128.26 395.71 133.95 C 397.91 133.50 400.07 132.87 402.19 132.11 C 407.72 129.53 413.20 126.66 419.18 125.27 C 424.22 124.06 429.15 122.44 434.12 120.99 C 435.13 120.63 436.13 120.28 437.15 119.92 C 438.15 119.61 439.16 119.30 440.17 119.01 C 448.92 115.32 457.94 112.29 467.15 109.99 C 469.47 109.25 471.81 108.58 474.19 108.03 C 480.24 106.23 486.23 104.22 492.13 101.96 M 448.30 130.37 C 429.20 138.75 409.52 145.67 390.04 153.08 C 377.16 156.65 365.39 163.06 352.99 167.88 C 338.10 174.56 324.70 184.01 311.31 193.23 C 301.39 200.08 292.19 208.10 284.69 217.58 C 282.01 220.92 278.75 223.76 276.19 227.22 C 268.82 236.93 264.57 248.46 259.17 259.28 C 258.70 260.35 258.06 261.40 257.92 262.59 C 268.70 269.85 280.05 276.53 289.26 285.82 C 291.25 287.29 291.10 291.07 288.34 291.47 C 281.31 293.71 273.81 293.54 266.55 294.59 C 267.41 298.21 268.25 301.87 269.72 305.30 C 277.10 322.54 286.01 339.43 298.72 353.38 C 307.41 349.80 316.49 347.10 325.80 345.72 C 332.87 344.97 340.04 345.57 346.95 347.20 C 353.92 349.78 361.57 353.61 364.18 361.12 C 366.72 369.36 366.09 378.28 364.10 386.57 C 359.39 393.48 351.86 397.43 344.29 400.42 C 355.20 411.24 369.48 417.47 382.19 425.78 C 389.46 430.55 397.36 434.23 405.28 437.79 C 413.74 441.53 422.04 445.96 431.24 447.68 C 441.08 449.52 451.17 449.98 461.16 449.37 C 458.43 445.01 454.39 441.68 451.32 437.57 C 443.99 428.26 435.61 419.77 429.18 409.77 C 419.48 396.19 408.34 383.66 399.50 369.46 C 393.47 359.40 384.59 351.32 379.40 340.72 C 378.99 342.96 378.47 345.20 378.25 347.48 C 377.79 345.27 377.82 343.02 378.01 340.79 C 377.92 340.16 377.74 338.89 377.65 338.26 C 380.16 340.01 382.75 341.70 385.51 343.06 C 393.27 350.31 403.43 354.05 412.01 360.15 C 419.10 364.57 426.94 367.64 434.05 372.05 C 434.29 368.84 434.56 365.63 434.72 362.42 C 440.01 353.47 450.22 349.09 460.11 347.57 C 476.57 344.94 494.29 346.78 509.02 354.96 C 516.73 359.04 521.04 367.67 521.36 376.18 C 520.13 379.15 518.67 382.11 516.32 384.37 C 510.52 390.57 502.04 392.58 494.37 395.39 C 498.03 398.30 502.58 399.49 506.95 400.88 C 523.55 406.70 541.00 409.39 558.10 413.29 C 570.61 415.90 583.12 418.85 595.92 419.68 C 605.67 420.09 615.26 423.05 625.07 421.70 C 623.19 411.03 617.79 401.42 613.33 391.66 C 609.47 384.09 606.96 375.87 602.39 368.67 C 597.02 359.84 590.39 351.89 584.75 343.25 C 579.52 335.30 572.89 328.44 567.06 320.97 C 565.35 318.73 563.26 316.75 560.59 315.74 C 557.69 309.79 552.07 305.66 549.35 299.60 C 548.25 297.82 550.52 296.59 551.40 295.33 C 564.58 305.04 577.85 314.98 588.30 327.73 C 593.85 334.63 597.85 342.84 604.49 348.81 C 607.81 349.81 611.47 349.09 614.93 349.15 C 623.70 349.10 632.36 347.61 641.05 346.59 C 641.60 346.54 642.71 346.45 643.27 346.40 C 636.54 317.63 618.89 292.98 599.96 270.91 C 579.42 250.56 555.59 233.69 530.33 219.70 C 523.93 216.72 518.24 212.27 511.43 210.19 L 511.43 210.10 C 510.00 209.79 508.60 209.38 507.31 208.71 C 490.12 200.08 471.85 193.87 453.51 188.18 C 455.29 184.52 458.06 181.50 460.14 178.03 C 470.47 160.49 479.71 142.29 487.34 123.41 C 488.14 121.29 488.53 119.04 488.90 116.82 C 475.14 120.56 461.59 125.18 448.30 130.37 M 297.70 140.69 C 283.69 148.30 270.40 157.21 257.64 166.75 C 251.33 171.56 246.00 178.89 237.44 179.49 C 238.77 164.81 237.28 150.09 236.88 135.41 C 231.49 143.15 227.79 151.95 224.96 160.92 C 223.64 165.44 222.24 170.00 221.96 174.74 C 220.76 180.36 220.33 186.13 218.85 191.69 C 217.37 192.47 215.91 193.26 214.45 194.06 C 215.89 196.40 217.71 198.58 220.23 199.82 C 227.94 204.01 237.16 202.85 245.23 206.02 C 238.91 213.63 231.79 220.76 227.24 229.66 C 232.94 236.87 239.28 243.57 245.84 250.00 C 248.03 248.63 249.71 246.67 250.59 244.22 C 254.29 236.10 261.13 229.88 264.64 221.64 C 267.77 214.55 273.83 209.50 278.73 203.69 C 288.28 190.79 302.92 183.21 314.07 171.93 C 309.65 172.26 305.27 173.03 300.83 173.18 C 300.55 172.27 300.27 171.37 299.99 170.47 C 311.95 158.77 324.51 145.58 326.93 128.27 C 317.29 132.66 306.98 135.51 297.70 140.69 M 344.65 143.62 C 341.42 145.11 337.70 145.61 334.83 147.78 C 331.99 150.74 330.47 154.65 328.73 158.30 C 333.82 158.30 339.16 158.29 343.79 155.82 C 355.14 150.08 366.90 145.20 378.84 140.83 C 383.31 139.20 384.15 133.93 385.31 129.92 C 370.59 130.04 357.83 138.18 344.65 143.62 M 477.13 178.83 C 491.15 183.98 503.82 192.11 517.81 197.30 C 520.95 198.82 523.61 195.72 525.97 194.09 C 534.83 186.51 544.90 180.41 553.23 172.22 C 529.80 172.33 506.46 169.32 483.04 169.89 C 479.53 171.29 478.90 175.82 477.13 178.83 M 187.00 171.70 C 188.86 179.53 191.98 186.98 195.34 194.26 C 198.77 193.23 201.90 191.42 204.69 189.18 C 198.70 183.45 193.36 177.04 187.00 171.70 M 198.88 243.44 C 201.79 264.96 215.30 282.63 224.82 301.53 L 224.18 302.49 C 213.18 302.51 203.22 296.67 192.33 295.80 C 192.75 299.11 193.69 302.42 195.81 305.06 C 200.79 311.55 208.49 314.96 215.61 318.53 C 224.36 323.06 234.24 325.25 244.08 325.12 C 249.63 325.04 255.32 325.24 260.70 323.66 C 262.68 322.71 262.13 320.02 261.46 318.38 C 258.30 311.14 254.88 304.01 251.20 297.02 C 250.85 294.06 250.97 291.07 251.38 288.13 C 241.32 276.97 229.17 268.01 218.35 257.65 C 212.34 252.30 205.65 247.76 198.88 243.44 M 253.95 333.75 C 242.69 337.27 232.61 343.61 222.47 349.48 C 212.62 355.02 204.70 363.29 197.43 371.80 C 206.52 370.61 215.51 368.06 224.76 368.64 C 221.30 373.87 216.96 378.48 213.77 383.90 C 207.48 394.79 200.41 405.33 195.86 417.12 C 193.95 421.75 192.42 426.62 192.09 431.64 C 190.76 434.68 189.58 437.90 190.07 441.29 C 187.51 453.01 187.87 465.11 186.37 476.98 C 185.53 486.41 185.65 495.97 187.04 505.35 L 187.52 505.48 C 187.90 508.32 188.00 511.22 187.09 513.98 C 185.87 513.54 184.97 512.55 183.95 511.81 C 183.82 511.27 183.56 510.19 183.43 509.65 C 180.03 498.91 173.03 489.78 165.75 481.36 C 158.47 473.39 147.42 470.49 137.02 469.57 C 131.25 469.17 125.09 468.05 119.66 470.66 C 108.30 475.31 100.20 485.74 96.26 497.12 C 93.27 505.79 89.89 514.71 90.42 524.04 C 90.78 528.96 89.76 534.18 92.07 538.77 C 94.30 543.62 94.35 549.25 97.28 553.80 C 101.08 560.71 107.35 565.74 113.62 570.28 C 121.36 574.06 129.38 577.67 137.98 578.93 C 155.20 581.97 173.25 578.64 188.64 570.49 C 190.92 572.10 193.24 574.01 196.07 574.50 C 212.93 584.63 231.70 590.84 250.43 596.49 C 271.97 603.31 294.32 607.56 316.85 609.22 C 327.64 610.15 338.24 612.57 349.05 613.37 C 354.70 613.64 360.29 614.86 365.97 614.57 C 375.71 613.71 385.37 615.89 395.11 615.75 C 402.72 616.60 410.36 615.61 417.98 615.36 C 426.27 613.98 434.70 613.79 443.01 612.49 C 461.88 609.42 480.70 605.59 499.01 600.00 C 507.61 597.54 515.62 593.48 523.69 589.69 C 533.07 585.14 542.54 580.44 550.52 573.63 C 558.53 568.19 565.17 560.87 570.15 552.59 C 570.27 553.09 570.52 554.11 570.65 554.62 C 576.67 555.45 582.74 553.96 588.10 551.24 L 588.15 550.78 C 596.84 547.63 606.10 543.09 610.39 534.41 C 616.12 520.21 618.62 503.93 613.83 489.10 C 609.60 478.66 598.54 472.85 587.91 471.10 C 583.57 470.09 579.14 470.11 574.74 470.40 C 571.82 468.54 571.25 465.04 571.43 461.84 C 572.02 457.43 572.10 452.98 572.49 448.56 C 571.53 448.58 569.59 448.61 568.63 448.62 C 566.35 461.81 566.77 475.78 560.70 488.07 C 560.44 488.24 559.91 488.58 559.65 488.76 C 557.54 492.60 555.54 496.52 553.22 500.25 C 549.39 506.40 543.40 510.71 537.68 514.97 C 525.89 523.26 510.94 524.66 496.95 524.92 C 493.29 525.80 489.71 524.31 486.04 524.68 C 479.54 524.23 473.45 521.69 467.27 519.82 C 461.47 518.07 456.30 514.88 450.92 512.19 C 441.79 507.81 434.34 500.79 426.83 494.15 C 420.24 487.50 414.90 479.69 410.51 471.44 C 408.02 465.83 405.71 459.74 406.36 453.51 C 396.19 450.38 386.23 446.48 376.98 441.20 C 375.57 441.84 375.37 443.65 374.59 444.84 C 376.12 451.15 375.47 457.67 374.77 464.04 C 373.82 468.29 373.58 472.76 371.71 476.76 C 371.37 477.48 371.12 478.23 370.97 479.01 C 370.10 485.90 365.61 491.30 362.10 497.01 C 359.65 500.58 356.75 503.80 353.87 507.02 C 349.52 511.71 344.93 516.51 338.85 518.89 C 331.30 521.44 324.21 525.56 316.19 526.54 C 302.54 528.27 288.70 527.97 275.02 526.87 C 264.89 525.28 255.24 521.63 245.53 518.47 C 241.67 517.29 238.24 515.11 234.83 513.01 C 227.25 508.21 220.04 502.55 214.73 495.24 C 209.90 488.66 204.05 482.70 200.66 475.17 C 195.71 464.52 195.20 452.58 194.77 441.04 C 194.89 436.94 194.58 432.46 197.06 428.95 C 208.38 429.30 219.68 428.35 231.01 428.63 C 247.99 428.02 264.98 428.51 281.97 428.31 C 289.96 428.37 297.97 428.20 305.96 428.49 C 310.91 428.33 315.97 429.16 320.81 427.83 C 331.49 428.32 342.14 426.77 352.81 426.42 C 343.19 420.65 335.44 412.40 326.95 405.19 C 324.12 402.95 320.33 403.26 316.96 402.94 C 310.73 402.55 304.91 400.02 298.76 399.12 C 293.07 398.39 287.88 395.84 282.94 393.07 C 279.22 390.94 274.57 389.72 272.22 385.83 C 269.11 381.10 269.19 374.86 271.46 369.80 C 275.64 365.85 280.54 362.82 285.56 360.06 C 279.50 349.80 270.77 341.15 266.51 329.85 C 262.29 331.04 258.08 332.28 253.95 333.75 M 616.87 364.39 C 618.47 373.20 623.37 380.86 627.04 388.90 C 634.03 386.94 641.20 385.32 647.65 381.88 C 643.15 376.11 637.97 370.83 634.38 364.40 C 628.55 364.12 622.71 364.20 616.87 364.39 M 437.57 394.99 C 445.24 403.97 453.09 412.87 459.81 422.61 C 462.87 422.72 465.94 423.00 469.01 423.06 C 485.47 422.29 501.97 423.11 518.43 422.55 C 509.10 420.52 500.12 417.10 490.76 415.16 C 486.61 414.37 482.89 412.25 478.88 411.03 C 464.80 406.49 451.29 400.45 437.57 394.99 M 570.96 433.19 C 571.78 434.79 572.61 436.40 573.43 438.02 C 573.52 436.51 573.63 435.01 573.74 433.52 C 573.04 433.44 571.66 433.27 570.96 433.19 M 589.43 435.91 C 589.65 441.32 589.27 446.75 589.83 452.14 C 590.01 452.46 590.37 453.10 590.54 453.41 C 595.16 455.47 600.39 455.74 604.91 458.10 C 608.65 460.04 612.76 461.18 617.00 461.10 C 616.91 453.43 616.84 445.75 616.07 438.11 C 607.17 437.74 598.30 436.79 589.43 435.91 M 210.37 446.44 C 210.51 448.95 210.31 451.54 211.15 453.96 C 211.37 455.34 211.56 456.74 211.77 458.14 C 212.19 459.44 212.57 460.75 212.95 462.07 C 213.26 463.10 213.57 464.13 213.87 465.18 C 215.15 468.47 216.46 471.75 218.22 474.83 C 224.83 487.07 235.21 496.93 247.01 504.15 C 250.81 506.46 254.83 508.39 258.86 510.27 C 266.65 513.44 274.78 515.84 283.13 516.91 C 288.28 518.13 293.64 517.23 298.86 517.94 C 303.28 518.63 307.69 517.50 312.11 517.31 C 315.02 515.74 318.43 515.84 321.46 514.65 C 324.65 513.48 327.91 512.47 330.95 510.91 C 344.23 504.24 355.67 493.06 361.10 479.07 C 364.71 470.50 365.02 461.04 364.21 451.90 C 363.72 450.86 363.26 449.83 362.81 448.79 C 362.43 457.53 360.21 466.23 355.83 473.83 C 348.70 486.72 335.98 495.75 322.14 500.27 C 308.81 504.28 294.47 504.56 280.97 501.19 C 279.69 500.75 278.42 500.37 277.16 499.93 C 276.10 499.57 275.04 499.22 273.99 498.86 C 260.81 493.73 249.04 484.03 243.25 470.93 C 242.51 469.24 241.79 467.56 241.13 465.86 C 239.10 459.56 238.18 452.97 238.25 446.36 C 228.96 445.99 219.67 446.62 210.37 446.44 M 550.19 472.12 C 547.37 478.24 543.33 483.79 538.47 488.45 C 536.10 490.83 532.94 492.16 530.46 494.39 C 527.06 498.20 521.82 499.25 517.22 500.94 C 502.91 504.95 487.27 504.75 473.19 499.89 C 472.16 499.49 471.14 499.11 470.13 498.72 C 463.59 495.94 456.96 493.04 451.46 488.46 C 444.75 482.74 438.90 475.95 434.66 468.20 C 433.23 465.41 430.82 463.29 428.23 461.62 C 425.87 460.95 423.41 460.74 421.02 460.31 C 421.34 461.82 421.70 463.32 422.12 464.83 C 422.47 465.85 422.84 466.89 423.21 467.92 C 429.54 485.29 444.34 498.51 461.01 505.81 C 463.88 507.08 466.83 508.17 469.80 509.19 C 470.82 509.48 471.83 509.79 472.85 510.13 C 486.82 513.77 501.84 514.88 515.87 510.87 C 516.93 510.63 518.01 510.39 519.09 510.16 C 520.05 509.76 521.03 509.38 522.02 509.02 C 531.97 505.32 541.01 498.80 547.26 490.19 C 551.55 483.08 554.98 475.25 555.65 466.89 C 556.28 460.90 556.35 454.87 556.23 448.86 C 555.87 448.41 555.17 447.52 554.82 447.07 C 552.54 455.26 553.43 464.15 550.19 472.12 M 528.29 451.14 C 522.37 455.87 520.85 463.61 516.28 469.31 C 512.05 472.98 506.61 475.47 501.04 476.08 C 487.09 476.30 473.61 469.91 463.77 460.23 C 462.15 460.80 460.53 461.38 458.92 461.96 C 458.81 463.38 458.72 464.81 458.64 466.25 C 457.74 466.55 456.84 466.84 455.96 467.15 C 456.06 468.96 456.52 470.78 457.77 472.17 C 466.77 484.07 482.15 490.64 496.98 489.27 C 508.52 487.90 520.29 484.04 528.66 475.64 C 534.28 470.15 538.06 461.61 535.37 453.82 C 533.03 452.88 530.67 451.97 528.29 451.14 M 327.60 463.54 C 325.23 467.40 322.39 471.03 318.88 473.92 C 316.74 475.89 313.61 475.24 310.96 475.44 C 299.97 475.42 288.06 474.86 278.85 468.13 C 274.38 465.09 271.67 460.32 269.09 455.73 C 266.25 455.46 263.40 455.23 260.56 455.04 C 261.25 462.46 265.08 469.52 270.89 474.18 C 278.73 480.59 289.02 483.33 299.01 483.33 C 308.25 482.88 317.94 480.27 324.70 473.63 C 330.32 468.37 333.53 460.53 333.09 452.85 C 330.85 456.20 329.74 460.14 327.60 463.54 Z" />
<path fill="#000000" opacity="1.00" d=" M 331.31 551.22 C 337.25 549.55 338.94 556.49 339.67 560.82 C 345.82 557.96 352.51 556.61 359.22 555.84 C 377.82 554.93 396.46 555.19 415.08 555.81 C 419.63 556.87 424.45 556.54 428.91 558.16 C 430.58 558.40 432.27 558.64 433.90 559.10 C 438.39 559.90 442.67 561.49 446.90 563.15 C 448.90 563.63 450.40 565.55 449.67 567.65 C 449.40 569.94 446.49 569.64 444.87 569.24 C 438.11 567.44 431.30 565.77 424.36 564.83 C 408.96 562.97 393.36 562.89 377.89 563.76 C 369.34 565.49 360.50 564.09 352.03 566.27 C 348.92 567.06 345.64 567.28 342.70 568.62 C 342.38 568.87 341.76 569.35 341.45 569.60 C 342.33 574.24 342.80 579.13 341.47 583.74 C 339.56 583.73 337.66 583.68 335.77 583.51 C 334.73 572.70 331.63 562.08 331.31 551.22 Z" />
</g>
<g id="#8e9c9fff">
<path fill="#8e9c9f" opacity="1.00" d=" M 448.30 130.37 C 461.59 125.18 475.14 120.56 488.90 116.82 C 488.53 119.04 488.14 121.29 487.34 123.41 C 479.71 142.29 470.47 160.49 460.14 178.03 C 458.06 181.50 455.29 184.52 453.51 188.18 C 471.85 193.87 490.12 200.08 507.31 208.71 C 508.60 209.38 510.00 209.79 511.43 210.10 L 511.43 210.19 C 511.43 210.60 511.44 211.40 511.44 211.81 C 518.33 217.82 526.82 221.52 534.28 226.72 C 542.34 232.31 550.92 237.19 558.48 243.48 C 563.42 247.54 567.46 252.54 571.37 257.57 C 574.55 261.78 577.50 266.60 577.70 272.01 C 577.89 276.39 574.57 280.03 570.86 281.87 C 564.80 284.84 557.64 285.66 551.11 283.88 C 544.59 282.26 538.86 278.62 532.69 276.11 C 533.49 279.58 534.94 283.02 537.86 285.24 C 542.23 288.79 547.16 291.60 551.40 295.33 C 550.52 296.59 548.25 297.82 549.35 299.60 C 552.07 305.66 557.69 309.79 560.59 315.74 C 563.58 323.44 567.70 330.63 570.68 338.33 C 574.01 346.43 575.97 355.18 575.65 363.96 C 575.46 370.07 570.91 375.70 564.97 377.13 C 550.61 380.54 535.72 378.58 521.36 376.18 C 521.04 367.67 516.73 359.04 509.02 354.96 C 494.29 346.78 476.57 344.94 460.11 347.57 C 450.22 349.09 440.01 353.47 434.72 362.42 C 429.68 360.95 424.84 358.93 420.01 356.92 C 414.69 354.69 408.94 353.68 403.70 351.26 C 397.64 348.52 391.83 345.20 385.51 343.06 C 382.75 341.70 380.16 340.01 377.65 338.26 C 375.74 336.70 373.75 334.48 371.02 334.98 C 367.51 335.31 363.94 336.12 360.91 337.98 C 358.88 339.17 358.59 341.69 357.87 343.71 C 364.71 344.34 371.72 343.71 378.01 340.79 C 377.82 343.02 377.79 345.27 378.25 347.48 C 380.90 358.54 385.02 369.52 384.53 381.08 C 384.57 383.72 381.89 385.13 379.67 385.66 C 374.57 386.83 369.29 386.62 364.10 386.57 C 366.09 378.28 366.72 369.36 364.18 361.12 C 361.57 353.61 353.92 349.78 346.95 347.20 C 347.82 344.17 348.57 341.12 349.18 338.03 C 346.54 338.26 343.85 338.33 341.34 339.24 C 338.50 340.27 336.51 342.75 333.80 344.01 C 331.21 344.89 328.48 345.24 325.80 345.72 C 316.49 347.10 307.41 349.80 298.72 353.38 C 286.01 339.43 277.10 322.54 269.72 305.30 C 268.25 301.87 267.41 298.21 266.55 294.59 C 273.81 293.54 281.31 293.71 288.34 291.47 C 291.10 291.07 291.25 287.29 289.26 285.82 C 280.05 276.53 268.70 269.85 257.92 262.59 C 258.06 261.40 258.70 260.35 259.17 259.28 C 264.57 248.46 268.82 236.93 276.19 227.22 C 278.75 223.76 282.01 220.92 284.69 217.58 C 292.19 208.10 301.39 200.08 311.31 193.23 C 324.70 184.01 338.10 174.56 352.99 167.88 C 365.39 163.06 377.16 156.65 390.04 153.08 C 409.52 145.67 429.20 138.75 448.30 130.37 M 407.43 234.29 C 407.12 237.35 410.49 238.42 412.97 238.20 C 422.39 238.17 430.89 242.74 438.99 247.03 C 442.97 249.18 447.52 251.33 449.29 255.82 C 442.47 257.45 435.44 258.02 428.73 260.09 C 435.48 272.93 446.08 284.27 448.28 299.11 C 448.99 301.56 447.48 304.25 444.97 304.81 C 437.14 306.43 429.26 303.81 422.10 300.82 C 418.07 299.29 414.25 296.73 409.79 296.87 C 410.40 302.25 415.72 304.73 420.04 306.80 C 431.93 312.34 445.86 316.46 458.72 311.69 C 461.76 304.78 458.02 297.63 455.79 291.09 C 452.75 282.12 447.45 274.21 442.89 265.98 C 448.24 264.28 453.94 263.58 459.04 261.12 C 461.03 260.34 462.13 257.93 461.33 255.93 C 460.04 251.30 455.84 248.52 452.17 245.87 C 441.55 238.23 429.33 231.85 416.03 231.07 C 412.98 230.93 408.94 231.12 407.43 234.29 M 496.94 246.22 C 503.87 253.34 511.65 259.75 520.28 264.71 C 522.52 266.42 525.04 264.70 527.23 263.84 C 523.51 255.92 514.94 252.53 508.12 247.89 C 504.84 245.88 500.23 242.29 496.94 246.22 M 502.88 264.02 C 501.87 269.35 506.38 272.94 510.00 275.96 C 515.14 280.06 520.02 285.54 526.99 286.12 C 527.04 283.50 527.43 280.57 525.70 278.35 C 523.05 274.67 519.41 271.83 515.96 268.94 C 512.27 265.88 507.49 264.77 502.88 264.02 M 528.30 292.24 C 525.62 293.30 522.20 294.06 520.95 296.98 C 525.48 304.24 532.49 309.53 537.92 316.09 C 541.52 319.83 543.73 325.37 549.01 327.11 C 552.93 328.67 557.28 327.76 560.96 325.98 C 554.68 313.61 544.54 303.90 535.73 293.37 C 534.01 290.88 530.74 291.23 528.30 292.24 M 488.91 304.43 C 490.97 311.23 496.97 315.72 500.03 321.99 C 502.17 325.52 503.78 330.23 508.08 331.62 C 513.94 331.51 519.79 330.54 525.56 329.51 C 528.11 328.81 531.45 328.39 532.61 325.63 C 533.58 323.58 531.85 321.78 530.69 320.30 C 524.74 313.45 520.00 305.51 513.01 299.60 C 504.79 300.06 496.75 302.00 488.91 304.43 M 478.01 313.90 C 481.55 319.82 485.70 325.42 490.67 330.22 C 491.42 328.80 492.18 327.39 492.94 325.98 C 489.79 319.88 486.44 313.07 479.78 310.18 C 479.18 311.41 478.60 312.66 478.01 313.90 M 434.33 325.38 C 420.90 330.88 406.01 329.59 392.17 333.28 C 389.12 334.03 390.08 339.47 393.01 339.49 C 415.37 338.88 437.81 338.03 459.97 334.69 C 465.45 333.80 471.00 333.05 476.29 331.30 C 478.30 330.55 481.20 329.73 480.87 327.00 C 480.52 321.10 475.70 316.85 472.12 312.60 C 458.90 314.81 446.97 321.26 434.33 325.38 Z" />
<path fill="#8e9c9f" opacity="1.00" d=" M 297.70 140.69 C 306.98 135.51 317.29 132.66 326.93 128.27 C 324.51 145.58 311.95 158.77 299.99 170.47 C 300.27 171.37 300.55 172.27 300.83 173.18 C 305.27 173.03 309.65 172.26 314.07 171.93 C 302.92 183.21 288.28 190.79 278.73 203.69 C 273.83 209.50 267.77 214.55 264.64 221.64 C 261.13 229.88 254.29 236.10 250.59 244.22 C 245.11 239.22 239.81 233.98 235.33 228.05 C 243.75 218.22 254.64 210.64 261.89 199.79 C 248.46 197.28 234.94 195.21 221.66 191.96 C 221.82 186.22 221.82 180.48 221.96 174.74 C 222.24 170.00 223.64 165.44 224.96 160.92 C 227.79 151.95 231.49 143.15 236.88 135.41 C 237.28 150.09 238.77 164.81 237.44 179.49 C 246.00 178.89 251.33 171.56 257.64 166.75 C 270.40 157.21 283.69 148.30 297.70 140.69 Z" />
<path fill="#8e9c9f" opacity="1.00" d=" M 591.07 315.98 C 591.67 311.05 596.43 307.62 601.07 306.87 C 606.17 306.18 611.47 306.90 616.29 308.72 C 621.74 310.89 625.34 315.81 628.66 320.41 C 631.68 324.80 635.12 329.06 636.87 334.17 C 638.24 338.03 638.48 342.15 639.09 346.17 C 639.58 346.28 640.56 346.48 641.05 346.59 C 632.36 347.61 623.70 349.10 614.93 349.15 C 611.47 349.09 607.81 349.81 604.49 348.81 C 597.85 342.84 593.85 334.63 588.30 327.73 C 590.15 324.07 590.51 319.97 591.07 315.98 Z" />
</g>
<g id="#242d2dff">
<path fill="#242d2d" opacity="1.00" d=" M 344.65 143.62 C 357.83 138.18 370.59 130.04 385.31 129.92 C 384.15 133.93 383.31 139.20 378.84 140.83 C 366.90 145.20 355.14 150.08 343.79 155.82 C 339.16 158.29 333.82 158.30 328.73 158.30 C 330.47 154.65 331.99 150.74 334.83 147.78 C 337.70 145.61 341.42 145.11 344.65 143.62 Z" />
</g>
<g id="#4e6261ff">
<path fill="#4e6261" opacity="1.00" d=" M 477.13 178.83 C 478.90 175.82 479.53 171.29 483.04 169.89 C 506.46 169.32 529.80 172.33 553.23 172.22 C 544.90 180.41 534.83 186.51 525.97 194.09 C 523.61 195.72 520.95 198.82 517.81 197.30 C 503.82 192.11 491.15 183.98 477.13 178.83 Z" />
<path fill="#4e6261" opacity="1.00" d=" M 192.33 295.80 C 203.22 296.67 213.18 302.51 224.18 302.49 L 224.82 301.53 C 226.96 303.33 230.01 303.06 232.62 303.54 C 239.08 304.39 246.55 304.18 251.34 299.09 C 251.30 298.58 251.24 297.54 251.20 297.02 C 254.88 304.01 258.30 311.14 261.46 318.38 C 262.13 320.02 262.68 322.71 260.70 323.66 C 255.32 325.24 249.63 325.04 244.08 325.12 C 234.24 325.25 224.36 323.06 215.61 318.53 C 208.49 314.96 200.79 311.55 195.81 305.06 C 193.69 302.42 192.75 299.11 192.33 295.80 Z" />
<path fill="#4e6261" opacity="1.00" d=" M 560.59 315.74 C 563.26 316.75 565.35 318.73 567.06 320.97 C 572.89 328.44 579.52 335.30 584.75 343.25 C 590.39 351.89 597.02 359.84 602.39 368.67 C 606.96 375.87 609.47 384.09 613.33 391.66 C 617.79 401.42 623.19 411.03 625.07 421.70 C 615.26 423.05 605.67 420.09 595.92 419.68 C 583.12 418.85 570.61 415.90 558.10 413.29 C 541.00 409.39 523.55 406.70 506.95 400.88 C 502.58 399.49 498.03 398.30 494.37 395.39 C 502.04 392.58 510.52 390.57 516.32 384.37 C 518.67 382.11 520.13 379.15 521.36 376.18 C 535.72 378.58 550.61 380.54 564.97 377.13 C 570.91 375.70 575.46 370.07 575.65 363.96 C 575.97 355.18 574.01 346.43 570.68 338.33 C 567.70 330.63 563.58 323.44 560.59 315.74 Z" />
<path fill="#4e6261" opacity="1.00" d=" M 378.25 347.48 C 378.47 345.20 378.99 342.96 379.40 340.72 C 384.59 351.32 393.47 359.40 399.50 369.46 C 408.34 383.66 419.48 396.19 429.18 409.77 C 435.61 419.77 443.99 428.26 451.32 437.57 C 454.39 441.68 458.43 445.01 461.16 449.37 C 451.17 449.98 441.08 449.52 431.24 447.68 C 422.04 445.96 413.74 441.53 405.28 437.79 C 397.36 434.23 389.46 430.55 382.19 425.78 C 369.48 417.47 355.20 411.24 344.29 400.42 C 351.86 397.43 359.39 393.48 364.10 386.57 C 369.29 386.62 374.57 386.83 379.67 385.66 C 381.89 385.13 384.57 383.72 384.53 381.08 C 385.02 369.52 380.90 358.54 378.25 347.48 Z" />
<path fill="#4e6261" opacity="1.00" d=" M 385.51 343.06 C 391.83 345.20 397.64 348.52 403.70 351.26 C 408.94 353.68 414.69 354.69 420.01 356.92 C 424.84 358.93 429.68 360.95 434.72 362.42 C 434.56 365.63 434.29 368.84 434.05 372.05 C 426.94 367.64 419.10 364.57 412.01 360.15 C 403.43 354.05 393.27 350.31 385.51 343.06 Z" />
<path fill="#4e6261" opacity="1.00" d=" M 616.87 364.39 C 622.71 364.20 628.55 364.12 634.38 364.40 C 637.97 370.83 643.15 376.11 647.65 381.88 C 641.20 385.32 634.03 386.94 627.04 388.90 C 623.37 380.86 618.47 373.20 616.87 364.39 Z" />
<path fill="#4e6261" opacity="1.00" d=" M 589.43 435.91 C 598.30 436.79 607.17 437.74 616.07 438.11 C 616.84 445.75 616.91 453.43 617.00 461.10 C 612.76 461.18 608.65 460.04 604.91 458.10 C 600.39 455.74 595.16 455.47 590.54 453.41 C 590.37 453.10 590.01 452.46 589.83 452.14 C 589.27 446.75 589.65 441.32 589.43 435.91 Z" />
</g>
<g id="#2b3c3cff">
<path fill="#2b3c3c" opacity="1.00" d=" M 187.00 171.70 C 193.36 177.04 198.70 183.45 204.69 189.18 C 201.90 191.42 198.77 193.23 195.34 194.26 C 191.98 186.98 188.86 179.53 187.00 171.70 Z" />
</g>
<g id="#202d2dff">
<path fill="#202d2d" opacity="1.00" d=" M 218.85 191.69 C 220.33 186.13 220.76 180.36 221.96 174.74 C 221.82 180.48 221.82 186.22 221.66 191.96 C 234.94 195.21 248.46 197.28 261.89 199.79 C 254.64 210.64 243.75 218.22 235.33 228.05 C 239.81 233.98 245.11 239.22 250.59 244.22 C 249.71 246.67 248.03 248.63 245.84 250.00 C 239.28 243.57 232.94 236.87 227.24 229.66 C 231.79 220.76 238.91 213.63 245.23 206.02 C 237.16 202.85 227.94 204.01 220.23 199.82 C 217.71 198.58 215.89 196.40 214.45 194.06 C 215.91 193.26 217.37 192.47 218.85 191.69 Z" />
</g>
<g id="#cbd4ccff">
<path fill="#cbd4cc" opacity="1.00" d=" M 511.44 211.81 C 511.44 211.40 511.43 210.60 511.43 210.19 C 518.24 212.27 523.93 216.72 530.33 219.70 C 555.59 233.69 579.42 250.56 599.96 270.91 C 618.89 292.98 636.54 317.63 643.27 346.40 C 642.71 346.45 641.60 346.54 641.05 346.59 C 640.56 346.48 639.58 346.28 639.09 346.17 C 638.48 342.15 638.24 338.03 636.87 334.17 C 635.12 329.06 631.68 324.80 628.66 320.41 C 625.34 315.81 621.74 310.89 616.29 308.72 C 611.47 306.90 606.17 306.18 601.07 306.87 C 596.43 307.62 591.67 311.05 591.07 315.98 C 590.51 319.97 590.15 324.07 588.30 327.73 C 577.85 314.98 564.58 305.04 551.40 295.33 C 547.16 291.60 542.23 288.79 537.86 285.24 C 534.94 283.02 533.49 279.58 532.69 276.11 C 538.86 278.62 544.59 282.26 551.11 283.88 C 557.64 285.66 564.80 284.84 570.86 281.87 C 574.57 280.03 577.89 276.39 577.70 272.01 C 577.50 266.60 574.55 261.78 571.37 257.57 C 567.46 252.54 563.42 247.54 558.48 243.48 C 550.92 237.19 542.34 232.31 534.28 226.72 C 526.82 221.52 518.33 217.82 511.44 211.81 Z" />
<path fill="#cbd4cc" opacity="1.00" d=" M 434.33 325.38 C 446.97 321.26 458.90 314.81 472.12 312.60 C 475.70 316.85 480.52 321.10 480.87 327.00 C 481.20 329.73 478.30 330.55 476.29 331.30 C 471.00 333.05 465.45 333.80 459.97 334.69 C 437.81 338.03 415.37 338.88 393.01 339.49 C 390.08 339.47 389.12 334.03 392.17 333.28 C 406.01 329.59 420.90 330.88 434.33 325.38 Z" />
<path fill="#cbd4cc" opacity="1.00" d=" M 360.91 337.98 C 363.94 336.12 367.51 335.31 371.02 334.98 C 373.75 334.48 375.74 336.70 377.65 338.26 C 377.74 338.89 377.92 340.16 378.01 340.79 C 371.72 343.71 364.71 344.34 357.87 343.71 C 358.59 341.69 358.88 339.17 360.91 337.98 Z" />
<path fill="#cbd4cc" opacity="1.00" d=" M 341.34 339.24 C 343.85 338.33 346.54 338.26 349.18 338.03 C 348.57 341.12 347.82 344.17 346.95 347.20 C 340.04 345.57 332.87 344.97 325.80 345.72 C 328.48 345.24 331.21 344.89 333.80 344.01 C 336.51 342.75 338.50 340.27 341.34 339.24 Z" />
</g>
<g id="#697476ff">
<path fill="#697476" opacity="1.00" d=" M 407.43 234.29 C 408.94 231.12 412.98 230.93 416.03 231.07 C 429.33 231.85 441.55 238.23 452.17 245.87 C 455.84 248.52 460.04 251.30 461.33 255.93 C 462.13 257.93 461.03 260.34 459.04 261.12 C 453.94 263.58 448.24 264.28 442.89 265.98 C 447.45 274.21 452.75 282.12 455.79 291.09 C 458.02 297.63 461.76 304.78 458.72 311.69 C 445.86 316.46 431.93 312.34 420.04 306.80 C 415.72 304.73 410.40 302.25 409.79 296.87 C 414.25 296.73 418.07 299.29 422.10 300.82 C 429.26 303.81 437.14 306.43 444.97 304.81 C 447.48 304.25 448.99 301.56 448.28 299.11 C 446.08 284.27 435.48 272.93 428.73 260.09 C 435.44 258.02 442.47 257.45 449.29 255.82 C 447.52 251.33 442.97 249.18 438.99 247.03 C 430.89 242.74 422.39 238.17 412.97 238.20 C 410.49 238.42 407.12 237.35 407.43 234.29 Z" />
</g>
<g id="#869396ff">
<path fill="#869396" opacity="1.00" d=" M 198.88 243.44 C 205.65 247.76 212.34 252.30 218.35 257.65 C 229.17 268.01 241.32 276.97 251.38 288.13 C 250.97 291.07 250.85 294.06 251.20 297.02 C 251.24 297.54 251.30 298.58 251.34 299.09 C 246.55 304.18 239.08 304.39 232.62 303.54 C 230.01 303.06 226.96 303.33 224.82 301.53 C 215.30 282.63 201.79 264.96 198.88 243.44 Z" />
</g>
<g id="#6b7679ff">
<path fill="#6b7679" opacity="1.00" d=" M 496.94 246.22 C 500.23 242.29 504.84 245.88 508.12 247.89 C 514.94 252.53 523.51 255.92 527.23 263.84 C 525.04 264.70 522.52 266.42 520.28 264.71 C 511.65 259.75 503.87 253.34 496.94 246.22 Z" />
<path fill="#6b7679" opacity="1.00" d=" M 502.88 264.02 C 507.49 264.77 512.27 265.88 515.96 268.94 C 519.41 271.83 523.05 274.67 525.70 278.35 C 527.43 280.57 527.04 283.50 526.99 286.12 C 520.02 285.54 515.14 280.06 510.00 275.96 C 506.38 272.94 501.87 269.35 502.88 264.02 Z" />
</g>
<g id="#cad3cbff">
<path fill="#cad3cb" opacity="1.00" d=" M 528.30 292.24 C 530.74 291.23 534.01 290.88 535.73 293.37 C 544.54 303.90 554.68 313.61 560.96 325.98 C 557.28 327.76 552.93 328.67 549.01 327.11 C 543.73 325.37 541.52 319.83 537.92 316.09 C 532.49 309.53 525.48 304.24 520.95 296.98 C 522.20 294.06 525.62 293.30 528.30 292.24 Z" />
<path fill="#cad3cb" opacity="1.00" d=" M 488.91 304.43 C 496.75 302.00 504.79 300.06 513.01 299.60 C 520.00 305.51 524.74 313.45 530.69 320.30 C 531.85 321.78 533.58 323.58 532.61 325.63 C 531.45 328.39 528.11 328.81 525.56 329.51 C 519.79 330.54 513.94 331.51 508.08 331.62 C 503.78 330.23 502.17 325.52 500.03 321.99 C 496.97 315.72 490.97 311.23 488.91 304.43 Z" />
</g>
<g id="#c2ccc6ff">
<path fill="#c2ccc6" opacity="1.00" d=" M 478.01 313.90 C 478.60 312.66 479.18 311.41 479.78 310.18 C 486.44 313.07 489.79 319.88 492.94 325.98 C 492.18 327.39 491.42 328.80 490.67 330.22 C 485.70 325.42 481.55 319.82 478.01 313.90 Z" />
</g>
<g id="#b37978ff">
<path fill="#b37978" opacity="1.00" d=" M 253.95 333.75 C 258.08 332.28 262.29 331.04 266.51 329.85 C 270.77 341.15 279.50 349.80 285.56 360.06 C 280.54 362.82 275.64 365.85 271.46 369.80 C 265.04 358.19 258.66 346.32 255.86 333.22 C 255.38 333.35 254.43 333.62 253.95 333.75 Z" />
<path fill="#b37978" opacity="1.00" d=" M 437.57 394.99 C 451.29 400.45 464.80 406.49 478.88 411.03 C 482.89 412.25 486.61 414.37 490.76 415.16 C 500.12 417.10 509.10 420.52 518.43 422.55 C 501.97 423.11 485.47 422.29 469.01 423.06 C 465.94 423.00 462.87 422.72 459.81 422.61 C 453.09 412.87 445.24 403.97 437.57 394.99 Z" />
<path fill="#b37978" opacity="1.00" d=" M 298.76 399.12 C 304.91 400.02 310.73 402.55 316.96 402.94 C 320.33 403.26 324.12 402.95 326.95 405.19 C 335.44 412.40 343.19 420.65 352.81 426.42 C 342.14 426.77 331.49 428.32 320.81 427.83 C 322.15 427.35 323.47 426.82 324.80 426.32 C 320.93 423.18 317.50 419.55 313.88 416.13 C 308.37 410.91 301.34 406.68 298.76 399.12 Z" />
<path fill="#b37978" opacity="1.00" d=" M 570.96 433.19 C 571.66 433.27 573.04 433.44 573.74 433.52 C 573.63 435.01 573.52 436.51 573.43 438.02 C 572.61 436.40 571.78 434.79 570.96 433.19 Z" />
</g>
<g id="#f8d7abff">
<path fill="#f8d7ab" opacity="1.00" d=" M 222.47 349.48 C 232.61 343.61 242.69 337.27 253.95 333.75 C 254.43 333.62 255.38 333.35 255.86 333.22 C 258.66 346.32 265.04 358.19 271.46 369.80 C 269.19 374.86 269.11 381.10 272.22 385.83 C 274.57 389.72 279.22 390.94 282.94 393.07 C 287.88 395.84 293.07 398.39 298.76 399.12 C 301.34 406.68 308.37 410.91 313.88 416.13 C 317.50 419.55 320.93 423.18 324.80 426.32 C 323.47 426.82 322.15 427.35 320.81 427.83 C 315.97 429.16 310.91 428.33 305.96 428.49 C 297.97 428.20 289.96 428.37 281.97 428.31 C 264.98 428.51 247.99 428.02 231.01 428.63 C 219.68 428.35 208.38 429.30 197.06 428.95 C 194.58 432.46 194.89 436.94 194.77 441.04 C 195.20 452.58 195.71 464.52 200.66 475.17 C 204.05 482.70 209.90 488.66 214.73 495.24 C 220.04 502.55 227.25 508.21 234.83 513.01 C 238.24 515.11 241.67 517.29 245.53 518.47 C 255.24 521.63 264.89 525.28 275.02 526.87 C 288.70 527.97 302.54 528.27 316.19 526.54 C 324.21 525.56 331.30 521.44 338.85 518.89 C 344.93 516.51 349.52 511.71 353.87 507.02 C 365.40 513.35 379.15 514.75 391.96 512.25 C 405.12 510.02 417.39 503.56 426.83 494.15 C 434.34 500.79 441.79 507.81 450.92 512.19 C 456.30 514.88 461.47 518.07 467.27 519.82 C 473.45 521.69 479.54 524.23 486.04 524.68 C 489.71 524.31 493.29 525.80 496.95 524.92 C 510.94 524.66 525.89 523.26 537.68 514.97 C 543.40 510.71 549.39 506.40 553.22 500.25 C 555.54 496.52 557.54 492.60 559.65 488.76 C 559.91 488.58 560.44 488.24 560.70 488.07 C 562.07 487.17 563.43 486.23 564.96 485.60 C 566.39 485.90 567.76 486.46 569.14 486.98 C 569.95 492.59 574.04 496.83 576.19 501.90 C 581.18 512.46 581.00 524.78 577.42 535.74 C 568.05 538.60 562.08 546.91 554.21 552.22 C 547.93 557.37 539.94 559.41 532.22 561.25 C 524.93 563.18 517.35 563.27 509.89 563.88 C 505.35 562.69 501.03 560.70 496.71 558.89 C 498.61 554.94 495.98 551.30 493.97 548.08 C 492.99 546.75 492.03 545.34 490.62 544.45 C 488.47 543.93 486.25 544.21 484.07 544.25 C 480.73 540.43 477.78 534.68 471.88 535.15 C 470.67 534.99 469.47 534.87 468.28 534.79 C 466.66 534.82 465.06 535.05 463.46 535.23 C 462.02 534.46 460.72 533.19 459.06 533.03 C 457.66 533.35 456.33 533.90 455.00 534.41 C 453.74 533.02 452.51 531.61 451.21 530.27 C 449.59 528.10 447.26 528.69 445.15 529.72 C 444.48 529.19 443.84 528.65 443.21 528.13 C 441.71 526.86 440.10 525.74 438.33 524.90 C 437.94 525.20 437.15 525.81 436.76 526.12 C 436.18 526.58 435.60 527.05 435.03 527.53 C 432.09 525.86 429.31 523.71 425.98 522.90 C 421.83 524.09 417.59 525.29 413.23 524.50 C 411.08 527.23 413.05 530.37 414.30 533.02 C 416.86 537.96 423.16 538.10 427.99 538.87 C 433.17 539.83 438.25 536.99 443.38 538.45 C 447.26 539.66 451.06 538.06 454.88 537.58 C 458.31 538.24 461.41 540.04 464.80 540.90 L 466.43 541.38 C 469.76 546.06 467.67 553.47 473.19 556.74 C 479.45 560.13 478.37 569.13 484.50 572.68 C 486.86 574.33 490.23 570.67 492.14 573.04 C 491.10 574.14 489.88 575.06 488.62 575.90 C 487.38 576.35 486.12 576.75 484.88 577.19 C 480.92 578.48 477.27 580.52 473.60 582.46 C 471.63 583.40 469.63 584.29 467.65 585.22 C 465.92 586.04 464.22 586.91 462.50 587.74 C 460.59 588.63 458.68 589.49 456.79 590.40 C 455.36 591.07 453.97 591.79 452.54 592.43 C 451.53 592.59 449.53 592.92 448.53 593.08 C 437.22 593.55 425.87 595.04 414.58 593.50 C 412.56 593.08 410.35 592.67 408.82 591.18 C 407.47 588.01 407.62 584.44 406.58 581.18 C 405.60 579.48 403.84 578.43 402.35 577.25 C 396.13 572.37 387.68 572.71 380.39 574.49 C 376.55 575.22 372.50 575.34 368.92 577.03 C 367.82 580.26 367.58 583.71 366.65 586.99 C 366.50 587.56 366.20 588.72 366.05 589.30 C 365.12 592.98 364.95 596.78 364.70 600.55 C 361.98 600.05 359.26 599.58 356.56 599.01 C 354.62 598.57 352.68 598.08 350.75 597.59 C 337.10 593.88 322.93 589.50 308.68 592.60 C 309.58 587.22 303.53 584.30 303.71 579.10 C 302.89 572.95 307.44 568.24 310.24 563.30 C 311.94 560.59 312.78 557.34 314.91 554.92 C 317.53 552.82 321.46 554.31 324.08 552.11 C 327.36 549.63 329.65 545.58 334.15 545.20 C 334.32 546.43 334.50 547.67 334.68 548.91 C 338.77 548.31 342.87 547.56 347.03 547.79 C 349.78 547.77 352.66 548.28 355.33 547.39 C 357.46 545.90 358.69 543.37 361.05 542.17 C 366.26 539.55 371.58 537.05 377.23 535.52 C 378.51 536.81 379.95 539.96 382.14 538.24 C 384.79 535.08 385.39 530.83 386.03 526.89 C 381.39 525.82 376.96 523.77 372.13 523.67 C 369.52 523.66 367.02 522.89 364.88 521.42 C 359.93 523.45 354.61 523.31 349.38 523.13 C 346.75 523.53 344.22 524.38 341.66 525.06 C 340.68 524.95 339.70 524.84 338.74 524.71 L 337.31 524.52 C 335.02 523.96 332.67 524.22 330.59 525.36 C 327.95 526.54 325.32 527.75 322.68 528.93 C 321.51 529.45 320.35 529.99 319.17 530.49 C 316.25 531.60 313.33 532.73 310.52 534.10 C 307.62 535.47 304.73 537.14 302.97 539.92 C 302.26 540.84 301.57 541.79 300.82 542.69 C 296.55 546.05 294.38 551.01 291.91 555.68 C 291.54 556.23 290.80 557.35 290.43 557.90 C 286.41 562.16 283.08 567.76 277.17 569.56 C 272.95 571.40 269.46 575.12 264.54 575.01 C 263.02 575.09 261.51 575.14 260.00 575.16 C 255.77 575.15 251.49 574.87 247.38 573.79 C 246.53 573.35 245.68 572.91 244.85 572.46 C 244.28 572.57 243.13 572.78 242.56 572.89 C 241.91 573.01 240.62 573.27 239.98 573.39 C 238.59 572.82 237.21 572.25 235.85 571.64 C 231.49 569.17 227.67 565.77 224.55 561.87 C 223.59 559.33 222.16 557.03 220.26 555.10 C 218.33 552.81 216.63 550.33 215.08 547.77 C 214.82 547.20 214.31 546.06 214.05 545.49 C 212.15 541.23 210.62 536.77 209.87 532.16 C 209.23 528.74 210.00 524.61 207.01 522.14 C 203.40 518.28 201.11 513.39 197.26 509.74 C 194.41 507.53 190.99 506.31 187.52 505.48 L 187.04 505.35 C 185.65 495.97 185.53 486.41 186.37 476.98 C 187.87 465.11 187.51 453.01 190.07 441.29 C 190.90 440.06 191.79 438.89 192.68 437.71 C 192.47 435.68 192.23 433.67 192.09 431.64 C 192.42 426.62 193.95 421.75 195.86 417.12 C 200.41 405.33 207.48 394.79 213.77 383.90 C 216.96 378.48 221.30 373.87 224.76 368.64 C 215.51 368.06 206.52 370.61 197.43 371.80 C 204.70 363.29 212.62 355.02 222.47 349.48 M 406.01 524.70 C 405.01 527.91 404.27 531.77 406.26 534.77 C 407.86 537.22 409.35 540.82 412.93 540.18 C 413.87 534.38 411.85 527.06 406.01 524.70 M 399.42 532.58 C 398.65 535.88 399.55 539.10 402.23 541.25 C 403.47 538.19 404.93 534.56 402.20 531.82 C 401.50 532.01 400.11 532.39 399.42 532.58 M 331.31 551.22 C 331.63 562.08 334.73 572.70 335.77 583.51 C 337.66 583.68 339.56 583.73 341.47 583.74 C 342.80 579.13 342.33 574.24 341.45 569.60 C 341.76 569.35 342.38 568.87 342.70 568.62 C 343.48 573.75 343.09 578.96 343.53 584.11 C 344.03 579.51 343.69 574.88 344.06 570.28 C 350.44 569.43 356.53 566.65 363.05 567.01 C 368.08 567.32 372.97 565.76 377.99 565.92 C 383.69 566.04 389.30 564.63 395.00 564.95 C 404.74 565.03 414.81 567.58 424.36 564.83 C 431.30 565.77 438.11 567.44 444.87 569.24 C 446.49 569.64 449.40 569.94 449.67 567.65 C 450.40 565.55 448.90 563.63 446.90 563.15 C 442.67 561.49 438.39 559.90 433.90 559.10 C 432.27 558.64 430.58 558.40 428.91 558.16 C 424.45 556.54 419.63 556.87 415.08 555.81 C 396.46 555.19 377.82 554.93 359.22 555.84 C 352.51 556.61 345.82 557.96 339.67 560.82 C 338.94 556.49 337.25 549.55 331.31 551.22 Z" />
<path fill="#f8d7ab" opacity="1.00" d=" M 374.59 444.84 C 375.37 443.65 375.57 441.84 376.98 441.20 C 386.23 446.48 396.19 450.38 406.36 453.51 C 405.71 459.74 408.02 465.83 410.51 471.44 C 398.48 469.57 386.28 468.33 374.12 469.75 C 374.32 467.84 374.54 465.94 374.77 464.04 C 375.47 457.67 376.12 451.15 374.59 444.84 Z" />
<path fill="#f8d7ab" opacity="1.00" d=" M 119.66 470.66 C 125.09 468.05 131.25 469.17 137.02 469.57 C 147.42 470.49 158.47 473.39 165.75 481.36 C 173.03 489.78 180.03 498.91 183.43 509.65 C 183.39 513.32 183.18 516.99 183.09 520.67 C 181.75 521.04 180.41 521.41 179.07 521.80 C 179.53 523.82 181.03 525.20 182.62 526.42 C 183.68 530.13 185.23 533.67 187.17 537.02 C 186.53 538.81 185.89 540.61 185.24 542.42 C 186.16 543.09 187.07 543.77 187.99 544.46 C 188.93 547.47 189.95 550.47 190.78 553.52 C 191.27 555.49 191.66 557.48 192.03 559.48 C 192.66 564.81 195.00 569.67 197.93 574.10 C 197.47 574.20 196.53 574.40 196.07 574.50 C 193.24 574.01 190.92 572.10 188.64 570.49 C 173.25 578.64 155.20 581.97 137.98 578.93 C 129.38 577.67 121.36 574.06 113.62 570.28 C 107.35 565.74 101.08 560.71 97.28 553.80 C 94.35 549.25 94.30 543.62 92.07 538.77 C 89.76 534.18 90.78 528.96 90.42 524.04 C 89.89 514.71 93.27 505.79 96.26 497.12 C 100.20 485.74 108.30 475.31 119.66 470.66 M 127.02 492.99 C 120.04 496.24 112.52 499.47 107.75 505.80 C 101.45 514.82 101.74 527.11 106.38 536.78 C 110.55 548.48 118.24 560.06 130.34 564.53 C 141.55 568.20 154.25 567.74 165.01 562.83 C 169.99 559.60 175.08 555.19 175.87 548.93 C 179.18 549.34 183.78 545.82 181.65 542.32 C 179.81 539.86 176.63 541.34 174.17 541.64 C 168.04 542.59 160.40 543.30 156.13 537.78 C 155.52 527.49 157.09 516.98 154.43 506.89 C 153.57 503.64 152.68 500.23 150.41 497.65 C 144.87 491.03 134.70 489.32 127.02 492.99 Z" />
</g>
<g id="#bba280ff">
<path fill="#bba280" opacity="1.00" d=" M 192.09 431.64 C 192.23 433.67 192.47 435.68 192.68 437.71 C 191.79 438.89 190.90 440.06 190.07 441.29 C 189.58 437.90 190.76 434.68 192.09 431.64 Z" />
</g>
<g id="#fbfbfbff">
<path fill="#fbfbfb" opacity="1.00" d=" M 550.19 472.12 C 553.43 464.15 552.54 455.26 554.82 447.07 C 555.17 447.52 555.87 448.41 556.23 448.86 C 556.35 454.87 556.28 460.90 555.65 466.89 C 554.98 475.25 551.55 483.08 547.26 490.19 C 541.01 498.80 531.97 505.32 522.02 509.02 C 521.03 509.38 520.05 509.76 519.09 510.16 C 518.01 510.39 516.93 510.63 515.87 510.87 C 501.84 514.88 486.82 513.77 472.85 510.13 C 471.83 509.79 470.82 509.48 469.80 509.19 C 466.83 508.17 463.88 507.08 461.01 505.81 C 444.34 498.51 429.54 485.29 423.21 467.92 C 422.84 466.89 422.47 465.85 422.12 464.83 C 421.70 463.32 421.34 461.82 421.02 460.31 C 423.41 460.74 425.87 460.95 428.23 461.62 C 430.82 463.29 433.23 465.41 434.66 468.20 C 438.90 475.95 444.75 482.74 451.46 488.46 C 456.96 493.04 463.59 495.94 470.13 498.72 C 471.14 499.11 472.16 499.49 473.19 499.89 C 487.27 504.75 502.91 504.95 517.22 500.94 C 521.82 499.25 527.06 498.20 530.46 494.39 C 532.94 492.16 536.10 490.83 538.47 488.45 C 543.33 483.79 547.37 478.24 550.19 472.12 Z" />
</g>
<g id="#bb7f7eff">
<path fill="#bb7f7e" opacity="1.00" d=" M 560.70 488.07 C 566.77 475.78 566.35 461.81 568.63 448.62 C 569.59 448.61 571.53 448.58 572.49 448.56 C 572.10 452.98 572.02 457.43 571.43 461.84 C 571.05 465.85 570.63 469.86 570.29 473.88 C 569.88 478.24 570.52 482.74 569.14 486.98 C 567.76 486.46 566.39 485.90 564.96 485.60 C 563.43 486.23 562.07 487.17 560.70 488.07 Z" />
</g>
<g id="#191f1fff">
<path fill="#191f1f" opacity="1.00" d=" M 528.29 451.14 C 530.67 451.97 533.03 452.88 535.37 453.82 C 538.06 461.61 534.28 470.15 528.66 475.64 C 520.29 484.04 508.52 487.90 496.98 489.27 C 482.15 490.64 466.77 484.07 457.77 472.17 C 456.52 470.78 456.06 468.96 455.96 467.15 C 456.84 466.84 457.74 466.55 458.64 466.25 C 458.72 464.81 458.81 463.38 458.92 461.96 C 460.53 461.38 462.15 460.80 463.77 460.23 C 473.61 469.91 487.09 476.30 501.04 476.08 C 506.61 475.47 512.05 472.98 516.28 469.31 C 520.85 463.61 522.37 455.87 528.29 451.14 Z" />
</g>
<g id="#1d2524ff">
<path fill="#1d2524" opacity="1.00" d=" M 327.60 463.54 C 329.74 460.14 330.85 456.20 333.09 452.85 C 333.53 460.53 330.32 468.37 324.70 473.63 C 317.94 480.27 308.25 482.88 299.01 483.33 C 289.02 483.33 278.73 480.59 270.89 474.18 C 265.08 469.52 261.25 462.46 260.56 455.04 C 263.40 455.23 266.25 455.46 269.09 455.73 C 271.67 460.32 274.38 465.09 278.85 468.13 C 288.06 474.86 299.97 475.42 310.96 475.44 C 313.61 475.24 316.74 475.89 318.88 473.92 C 322.39 471.03 325.23 467.40 327.60 463.54 Z" />
</g>
<g id="#581b1aff">
<path fill="#581b1a" opacity="1.00" d=" M 570.29 473.88 C 570.63 469.86 571.05 465.85 571.43 461.84 C 571.25 465.04 571.82 468.54 574.74 470.40 C 579.14 470.11 583.57 470.09 587.91 471.10 C 587.27 475.35 586.04 479.57 586.20 483.90 C 587.11 488.08 590.08 491.41 591.53 495.40 C 593.99 501.97 594.58 509.06 594.97 516.01 C 595.14 521.89 595.76 528.00 593.68 533.65 C 591.95 539.39 588.57 544.69 588.15 550.78 L 588.10 551.24 C 582.74 553.96 576.67 555.45 570.65 554.62 C 570.52 554.11 570.27 553.09 570.15 552.59 C 573.23 547.28 575.72 541.63 577.42 535.74 C 581.00 524.78 581.18 512.46 576.19 501.90 C 574.04 496.83 569.95 492.59 569.14 486.98 C 570.52 482.74 569.88 478.24 570.29 473.88 Z" />
<path fill="#581b1a" opacity="1.00" d=" M 127.02 492.99 C 134.70 489.32 144.87 491.03 150.41 497.65 C 152.68 500.23 153.57 503.64 154.43 506.89 C 157.09 516.98 155.52 527.49 156.13 537.78 C 160.40 543.30 168.04 542.59 174.17 541.64 C 176.63 541.34 179.81 539.86 181.65 542.32 C 183.78 545.82 179.18 549.34 175.87 548.93 C 166.38 549.22 156.08 551.52 147.29 546.73 C 144.43 545.20 143.79 541.82 143.59 538.89 C 142.50 530.39 145.47 521.65 142.78 513.32 C 142.06 510.17 138.80 508.72 135.94 508.07 C 127.51 506.24 118.45 511.16 114.84 518.88 C 112.74 523.54 112.98 528.80 111.57 533.65 C 110.99 536.01 108.33 536.25 106.38 536.78 C 101.74 527.11 101.45 514.82 107.75 505.80 C 112.52 499.47 120.04 496.24 127.02 492.99 Z" />
</g>
<g id="#b57a79ff">
<path fill="#b57a79" opacity="1.00" d=" M 371.71 476.76 C 373.58 472.76 373.82 468.29 374.77 464.04 C 374.54 465.94 374.32 467.84 374.12 469.75 C 386.28 468.33 398.48 469.57 410.51 471.44 C 414.90 479.69 420.24 487.50 426.83 494.15 C 417.39 503.56 405.12 510.02 391.96 512.25 C 379.15 514.75 365.40 513.35 353.87 507.02 C 356.75 503.80 359.65 500.58 362.10 497.01 C 365.61 491.30 370.10 485.90 370.97 479.01 C 373.07 484.91 375.65 491.24 381.06 494.86 C 383.39 496.46 386.33 496.06 389.00 496.03 C 387.80 486.99 380.95 478.33 371.71 476.76 M 388.20 475.48 C 388.79 482.15 392.55 488.18 397.24 492.79 C 400.07 495.47 403.68 498.23 407.81 497.73 C 409.07 496.86 411.18 495.54 410.43 493.75 C 408.11 485.95 401.19 480.80 395.27 475.74 C 393.32 473.57 390.48 474.63 388.20 475.48 Z" />
</g>
<g id="#a35a59ff">
<path fill="#a35a59" opacity="1.00" d=" M 587.91 471.10 C 598.54 472.85 609.60 478.66 613.83 489.10 C 618.62 503.93 616.12 520.21 610.39 534.41 C 606.10 543.09 596.84 547.63 588.15 550.78 C 588.57 544.69 591.95 539.39 593.68 533.65 C 595.76 528.00 595.14 521.89 594.97 516.01 C 594.58 509.06 593.99 501.97 591.53 495.40 C 590.08 491.41 587.11 488.08 586.20 483.90 C 586.04 479.57 587.27 475.35 587.91 471.10 Z" />
</g>
<g id="#995554ff">
<path fill="#995554" opacity="1.00" d=" M 388.20 475.48 C 390.48 474.63 393.32 473.57 395.27 475.74 C 401.19 480.80 408.11 485.95 410.43 493.75 C 411.18 495.54 409.07 496.86 407.81 497.73 C 403.68 498.23 400.07 495.47 397.24 492.79 C 392.55 488.18 388.79 482.15 388.20 475.48 Z" />
<path fill="#995554" opacity="1.00" d=" M 370.97 479.01 C 371.12 478.23 371.37 477.48 371.71 476.76 C 380.95 478.33 387.80 486.99 389.00 496.03 C 386.33 496.06 383.39 496.46 381.06 494.86 C 375.65 491.24 373.07 484.91 370.97 479.01 Z" />
</g>
<g id="#cfac87ff">
<path fill="#cfac87" opacity="1.00" d=" M 187.52 505.48 C 190.99 506.31 194.41 507.53 197.26 509.74 C 198.08 517.44 200.19 526.81 193.71 532.75 C 190.89 527.39 192.08 521.24 192.69 515.51 C 190.82 515.02 188.93 514.56 187.09 513.98 C 188.00 511.22 187.90 508.32 187.52 505.48 Z" />
<path fill="#cfac87" opacity="1.00" d=" M 197.13 533.48 C 200.37 535.86 199.87 540.09 200.25 543.63 C 202.18 543.46 204.11 543.29 206.04 543.13 C 207.48 548.43 206.78 553.98 207.63 559.35 C 209.96 560.70 213.14 560.87 214.63 563.40 C 217.29 566.79 213.56 570.62 212.51 573.93 C 212.05 573.78 211.13 573.49 210.67 573.34 C 210.35 570.73 210.06 568.11 209.79 565.50 C 208.91 565.84 208.03 566.19 207.15 566.55 C 206.22 565.06 205.25 563.60 204.30 562.12 C 202.32 559.14 202.50 555.38 201.95 551.98 C 199.90 552.54 197.85 553.11 195.80 553.69 C 195.27 555.50 194.75 557.33 194.23 559.16 C 193.50 559.26 192.76 559.36 192.03 559.48 C 191.66 557.48 191.27 555.49 190.78 553.52 C 193.15 551.68 195.47 549.76 197.70 547.76 C 197.04 543.03 196.64 538.24 197.13 533.48 Z" />
<path fill="#cfac87" opacity="1.00" d=" M 302.97 539.92 C 305.00 539.66 307.04 539.41 309.08 539.16 C 308.08 543.50 308.14 548.98 303.59 551.30 C 301.52 548.89 301.15 545.72 300.82 542.69 C 301.57 541.79 302.26 540.84 302.97 539.92 Z" />
<path fill="#cfac87" opacity="1.00" d=" M 491.48 550.48 C 492.27 549.63 493.10 548.83 493.97 548.08 C 495.98 551.30 498.61 554.94 496.71 558.89 C 493.42 557.48 491.23 554.06 491.48 550.48 Z" />
<path fill="#cfac87" opacity="1.00" d=" M 278.26 584.13 C 274.96 579.94 277.90 571.83 283.65 572.14 C 284.32 576.62 282.85 582.32 278.26 584.13 Z" />
<path fill="#cfac87" opacity="1.00" d=" M 260.00 575.16 C 261.51 575.14 263.02 575.09 264.54 575.01 C 265.56 578.72 264.14 582.97 260.34 584.41 C 258.14 585.63 256.35 582.83 256.21 580.90 C 255.69 578.28 258.51 576.83 260.00 575.16 Z" />
</g>
<g id="#c98366ff">
<path fill="#c98366" opacity="1.00" d=" M 114.84 518.88 C 118.45 511.16 127.51 506.24 135.94 508.07 C 138.80 508.72 142.06 510.17 142.78 513.32 C 145.47 521.65 142.50 530.39 143.59 538.89 C 143.79 541.82 144.43 545.20 147.29 546.73 C 156.08 551.52 166.38 549.22 175.87 548.93 C 175.08 555.19 169.99 559.60 165.01 562.83 C 154.25 567.74 141.55 568.20 130.34 564.53 C 118.24 560.06 110.55 548.48 106.38 536.78 C 108.33 536.25 110.99 536.01 111.57 533.65 C 112.98 528.80 112.74 523.54 114.84 518.88 Z" />
</g>
<g id="#e8c49aff">
<path fill="#e8c49a" opacity="1.00" d=" M 183.43 509.65 C 183.56 510.19 183.82 511.27 183.95 511.81 C 184.97 512.55 185.87 513.54 187.09 513.98 C 188.93 514.56 190.82 515.02 192.69 515.51 C 192.08 521.24 190.89 527.39 193.71 532.75 C 200.19 526.81 198.08 517.44 197.26 509.74 C 201.11 513.39 203.40 518.28 207.01 522.14 C 202.53 524.10 201.72 529.97 204.40 533.71 C 206.30 533.50 208.08 532.78 209.87 532.16 C 210.62 536.77 212.15 541.23 214.05 545.49 C 213.29 545.74 211.77 546.25 211.01 546.50 C 211.10 547.88 211.02 549.30 211.41 550.66 C 212.49 552.12 214.17 552.98 215.62 554.04 C 215.49 551.95 215.33 549.85 215.08 547.77 C 216.63 550.33 218.33 552.81 220.26 555.10 C 218.05 558.60 217.94 563.91 221.26 566.73 C 224.05 567.18 224.04 563.69 224.55 561.87 C 227.67 565.77 231.49 569.17 235.85 571.64 C 235.28 573.45 234.70 575.27 234.13 577.09 C 231.30 575.31 228.74 573.16 226.33 570.86 C 225.51 573.45 224.82 576.08 224.23 578.75 C 226.05 578.93 227.89 579.02 229.68 579.47 C 231.12 580.80 232.05 582.57 233.14 584.19 C 235.03 583.43 236.91 582.66 238.79 581.88 C 239.20 579.05 239.61 576.22 239.98 573.39 C 240.62 573.27 241.91 573.01 242.56 572.89 C 242.91 575.22 243.31 577.55 243.79 579.87 C 244.39 579.71 245.59 579.39 246.19 579.23 C 246.58 577.41 246.98 575.59 247.38 573.79 C 251.49 574.87 255.77 575.15 260.00 575.16 C 258.51 576.83 255.69 578.28 256.21 580.90 C 256.35 582.83 258.14 585.63 260.34 584.41 C 264.14 582.97 265.56 578.72 264.54 575.01 C 269.46 575.12 272.95 571.40 277.17 569.56 C 283.08 567.76 286.41 562.16 290.43 557.90 C 291.07 560.28 292.32 562.41 294.16 564.06 C 296.25 561.01 297.81 557.59 298.05 553.85 C 295.98 554.39 293.93 555.00 291.91 555.68 C 294.38 551.01 296.55 546.05 300.82 542.69 C 301.15 545.72 301.52 548.89 303.59 551.30 C 308.14 548.98 308.08 543.50 309.08 539.16 C 307.04 539.41 305.00 539.66 302.97 539.92 C 304.73 537.14 307.62 535.47 310.52 534.10 C 310.95 534.68 311.82 535.83 312.26 536.41 C 315.17 535.24 317.63 533.25 319.17 530.49 C 320.35 529.99 321.51 529.45 322.68 528.93 C 321.09 532.10 322.40 535.42 323.66 538.44 C 324.16 538.54 325.17 538.73 325.67 538.83 C 326.01 538.37 326.69 537.47 327.03 537.01 C 326.86 535.21 326.69 533.43 326.55 531.64 C 328.13 529.70 329.57 527.64 330.59 525.36 C 332.67 524.22 335.02 523.96 337.31 524.52 C 336.68 524.75 335.41 525.22 334.78 525.45 C 334.32 527.65 333.83 529.84 333.34 532.03 C 334.07 532.12 335.51 532.31 336.24 532.41 C 337.38 529.95 338.28 527.38 338.74 524.71 C 339.70 524.84 340.68 524.95 341.66 525.06 C 341.50 526.08 341.33 527.11 341.18 528.14 C 344.78 528.22 347.31 525.75 349.38 523.13 C 354.61 523.31 359.93 523.45 364.88 521.42 C 367.02 522.89 369.52 523.66 372.13 523.67 C 376.96 523.77 381.39 525.82 386.03 526.89 C 385.39 530.83 384.79 535.08 382.14 538.24 C 379.95 539.96 378.51 536.81 377.23 535.52 C 371.58 537.05 366.26 539.55 361.05 542.17 C 358.69 543.37 357.46 545.90 355.33 547.39 C 352.66 548.28 349.78 547.77 347.03 547.79 C 342.87 547.56 338.77 548.31 334.68 548.91 C 334.50 547.67 334.32 546.43 334.15 545.20 C 329.65 545.58 327.36 549.63 324.08 552.11 C 321.46 554.31 317.53 552.82 314.91 554.92 C 312.78 557.34 311.94 560.59 310.24 563.30 C 307.44 568.24 302.89 572.95 303.71 579.10 C 303.53 584.30 309.58 587.22 308.68 592.60 C 322.93 589.50 337.10 593.88 350.75 597.59 C 351.29 599.35 351.45 601.41 352.99 602.67 C 354.56 601.86 355.51 600.35 356.56 599.01 C 359.26 599.58 361.98 600.05 364.70 600.55 C 364.95 596.78 365.12 592.98 366.05 589.30 C 371.57 591.35 377.86 590.35 383.19 592.73 C 384.41 596.17 384.82 599.98 387.18 602.93 C 386.45 604.29 385.71 605.64 384.98 607.00 C 385.52 607.33 386.60 608.00 387.15 608.34 C 390.27 607.06 390.15 603.51 390.75 600.71 C 391.21 600.54 392.13 600.22 392.59 600.05 C 391.96 602.16 391.43 604.30 391.03 606.47 C 393.56 607.12 396.10 608.05 398.75 608.05 C 400.32 606.75 401.67 604.89 401.72 602.79 C 401.27 599.79 399.80 597.07 398.68 594.29 C 395.42 594.58 392.17 594.82 388.91 595.01 C 390.66 592.44 392.57 589.90 395.20 588.17 C 396.85 587.21 398.74 586.49 400.02 585.04 C 401.30 582.63 401.70 579.87 402.35 577.25 C 403.84 578.43 405.60 579.48 406.58 581.18 C 407.62 584.44 407.47 588.01 408.82 591.18 C 410.35 592.67 412.56 593.08 414.58 593.50 C 425.87 595.04 437.22 593.55 448.53 593.08 C 447.88 595.22 448.08 597.40 449.01 599.44 C 452.08 598.38 452.59 595.28 452.54 592.43 C 453.97 591.79 455.36 591.07 456.79 590.40 C 457.48 591.86 458.17 593.33 458.88 594.80 C 460.03 594.30 461.16 593.75 462.28 593.17 C 462.69 591.39 462.51 589.54 462.50 587.74 C 464.22 586.91 465.92 586.04 467.65 585.22 C 468.55 587.58 469.67 590.09 472.62 589.95 C 473.20 587.49 473.58 584.98 473.60 582.46 C 477.27 580.52 480.92 578.48 484.88 577.19 C 486.67 579.85 487.88 582.83 488.67 585.94 C 490.27 584.60 492.70 583.56 492.82 581.18 C 491.72 579.20 490.09 577.59 488.62 575.90 C 489.88 575.06 491.10 574.14 492.14 573.04 C 490.23 570.67 486.86 574.33 484.50 572.68 C 478.37 569.13 479.45 560.13 473.19 556.74 C 467.67 553.47 469.76 546.06 466.43 541.38 C 467.06 540.49 467.70 539.60 468.35 538.73 C 467.55 537.48 466.73 536.23 465.92 535.00 C 464.69 536.77 463.92 538.79 464.80 540.90 C 461.41 540.04 458.31 538.24 454.88 537.58 C 451.06 538.06 447.26 539.66 443.38 538.45 C 438.25 536.99 433.17 539.83 427.99 538.87 C 423.16 538.10 416.86 537.96 414.30 533.02 C 416.31 530.36 413.80 527.20 413.23 524.50 C 417.59 525.29 421.83 524.09 425.98 522.90 C 429.31 523.71 432.09 525.86 435.03 527.53 C 435.60 527.05 436.18 526.58 436.76 526.12 C 438.19 528.23 439.81 530.35 442.36 531.15 C 442.57 530.39 442.99 528.88 443.21 528.13 C 443.84 528.65 444.48 529.19 445.15 529.72 C 446.90 531.07 448.79 532.24 450.71 533.34 C 450.83 532.57 451.09 531.04 451.21 530.27 C 452.51 531.61 453.74 533.02 455.00 534.41 C 456.33 533.90 457.66 533.35 459.06 533.03 C 460.72 533.19 462.02 534.46 463.46 535.23 C 465.06 535.05 466.66 534.82 468.28 534.79 C 469.20 537.83 471.90 539.49 474.93 539.95 C 474.83 537.81 473.95 535.98 471.88 535.15 C 477.78 534.68 480.73 540.43 484.07 544.25 C 486.25 544.21 488.47 543.93 490.62 544.45 C 492.03 545.34 492.99 546.75 493.97 548.08 C 493.10 548.83 492.27 549.63 491.48 550.48 C 491.23 554.06 493.42 557.48 496.71 558.89 C 501.03 560.70 505.35 562.69 509.89 563.88 C 517.35 563.27 524.93 563.18 532.22 561.25 C 539.94 559.41 547.93 557.37 554.21 552.22 C 562.08 546.91 568.05 538.60 577.42 535.74 C 575.72 541.63 573.23 547.28 570.15 552.59 C 565.17 560.87 558.53 568.19 550.52 573.63 C 542.54 580.44 533.07 585.14 523.69 589.69 C 515.62 593.48 507.61 597.54 499.01 600.00 C 480.70 605.59 461.88 609.42 443.01 612.49 C 434.70 613.79 426.27 613.98 417.98 615.36 C 410.36 615.61 402.72 616.60 395.11 615.75 C 385.37 615.89 375.71 613.71 365.97 614.57 C 360.29 614.86 354.70 613.64 349.05 613.37 C 338.24 612.57 327.64 610.15 316.85 609.22 C 294.32 607.56 271.97 603.31 250.43 596.49 C 231.70 590.84 212.93 584.63 196.07 574.50 C 196.53 574.40 197.47 574.20 197.93 574.10 C 195.00 569.67 192.66 564.81 192.03 559.48 C 192.76 559.36 193.50 559.26 194.23 559.16 C 194.75 557.33 195.27 555.50 195.80 553.69 C 197.85 553.11 199.90 552.54 201.95 551.98 C 202.50 555.38 202.32 559.14 204.30 562.12 C 205.25 563.60 206.22 565.06 207.15 566.55 C 208.03 566.19 208.91 565.84 209.79 565.50 C 210.06 568.11 210.35 570.73 210.67 573.34 C 211.13 573.49 212.05 573.78 212.51 573.93 C 213.56 570.62 217.29 566.79 214.63 563.40 C 213.14 560.87 209.96 560.70 207.63 559.35 C 206.78 553.98 207.48 548.43 206.04 543.13 C 204.11 543.29 202.18 543.46 200.25 543.63 C 199.87 540.09 200.37 535.86 197.13 533.48 C 196.64 538.24 197.04 543.03 197.70 547.76 C 195.47 549.76 193.15 551.68 190.78 553.52 C 189.95 550.47 188.93 547.47 187.99 544.46 C 189.61 542.91 191.46 541.51 192.62 539.56 C 193.36 537.75 193.14 535.72 193.33 533.82 C 191.26 534.86 189.21 535.93 187.17 537.02 C 185.23 533.67 183.68 530.13 182.62 526.42 C 183.94 526.01 185.26 525.61 186.58 525.23 C 186.55 524.36 186.52 523.50 186.49 522.64 C 185.35 521.98 184.22 521.32 183.09 520.67 C 183.18 516.99 183.39 513.32 183.43 509.65 M 427.35 528.34 C 426.33 530.42 425.42 533.96 428.02 535.26 C 431.97 535.43 431.53 526.40 427.35 528.34 M 369.29 529.28 C 366.82 530.07 365.44 532.39 363.96 534.33 C 365.08 535.30 366.24 537.22 368.00 536.25 C 370.82 535.54 372.45 530.32 369.29 529.28 M 350.73 534.75 C 349.96 536.39 349.30 539.44 352.02 539.41 C 355.21 538.47 355.46 534.49 355.05 531.74 C 353.43 532.42 351.53 533.02 350.73 534.75 M 442.33 532.40 C 440.71 532.92 440.61 535.21 442.24 535.78 C 443.49 536.81 444.60 534.77 445.33 533.99 C 444.87 532.88 443.56 531.62 442.33 532.40 M 335.48 535.29 C 335.31 536.46 335.19 537.63 335.12 538.82 C 336.39 538.80 337.68 538.78 338.96 538.76 C 339.01 537.14 339.01 535.52 338.96 533.92 C 337.83 534.38 336.28 534.25 335.48 535.29 M 311.07 538.11 C 311.21 539.22 311.38 540.33 311.60 541.44 C 312.70 541.68 313.81 541.85 314.95 541.96 C 315.01 541.24 315.13 539.81 315.19 539.09 C 314.49 537.23 312.52 538.05 311.07 538.11 M 474.66 552.07 C 474.88 552.67 475.33 553.85 475.55 554.44 C 477.33 554.48 479.10 554.53 480.89 554.59 C 480.96 552.82 481.27 551.01 480.67 549.31 C 478.26 548.27 476.55 551.03 474.66 552.07 M 559.70 558.06 C 562.81 560.66 566.16 553.83 562.84 551.84 C 560.91 553.35 559.50 555.50 559.70 558.06 M 301.95 552.92 C 301.71 554.33 301.70 555.74 301.92 557.15 C 303.53 557.55 304.90 556.67 306.21 555.87 C 304.81 554.85 303.39 553.87 301.95 552.92 M 554.43 559.43 C 552.99 561.05 553.14 563.31 554.00 565.17 C 555.55 563.60 557.95 561.97 557.49 559.44 C 557.13 557.75 555.07 558.20 554.43 559.43 M 481.02 563.21 C 481.61 565.66 482.79 568.06 485.28 569.04 C 485.46 567.67 485.69 566.31 485.99 564.98 C 487.36 563.50 489.24 562.43 489.98 560.46 C 486.55 559.47 484.42 563.19 481.02 563.21 M 545.55 565.39 C 547.91 566.84 548.94 563.83 549.89 562.26 C 549.39 561.84 548.40 561.01 547.90 560.59 C 545.76 561.22 544.70 563.31 545.55 565.39 M 492.07 562.11 C 489.62 563.62 488.64 566.40 489.90 569.06 C 492.43 568.10 494.20 566.08 493.93 563.26 C 493.47 562.97 492.53 562.39 492.07 562.11 M 293.52 571.01 C 295.77 573.97 298.23 570.01 298.78 567.83 C 296.37 564.46 293.50 568.25 293.52 571.01 M 544.31 565.79 C 542.80 567.50 541.81 569.55 541.21 571.74 C 541.67 572.08 542.60 572.75 543.06 573.08 C 545.83 571.63 546.66 568.02 544.31 565.79 M 521.33 572.59 C 524.23 573.38 527.08 570.26 525.29 567.59 C 522.37 566.35 521.18 570.36 521.33 572.59 M 527.12 572.85 C 527.81 572.82 529.20 572.77 529.89 572.75 C 530.48 570.78 533.51 567.01 529.92 566.59 C 527.11 567.30 527.43 570.61 527.12 572.85 M 532.60 574.45 C 536.08 574.74 536.43 569.54 536.98 566.96 C 532.80 566.04 531.93 571.46 532.60 574.45 M 217.92 568.76 C 217.71 572.04 217.64 575.40 218.82 578.53 C 221.66 576.54 223.13 573.34 223.24 569.93 C 221.55 569.21 219.75 568.82 217.92 568.76 M 513.30 574.74 C 516.68 575.39 519.24 571.47 516.94 568.76 C 513.93 569.28 512.86 571.96 513.30 574.74 M 278.26 584.13 C 282.85 582.32 284.32 576.62 283.65 572.14 C 277.90 571.83 274.96 579.94 278.26 584.13 M 503.36 579.74 C 503.80 580.82 504.26 581.92 504.71 583.02 C 505.94 582.18 507.35 581.25 507.54 579.64 C 507.29 577.31 506.13 575.21 505.38 573.03 C 501.85 572.94 499.22 578.41 503.36 579.74 M 520.21 574.08 C 518.79 575.99 517.86 578.19 518.02 580.62 C 520.57 580.67 523.11 580.63 525.66 580.55 C 525.63 579.23 526.03 577.84 525.54 576.59 C 523.90 575.47 522.02 574.82 520.21 574.08 M 508.46 583.38 C 511.79 584.62 512.91 579.47 512.93 576.97 C 509.42 576.51 508.09 580.54 508.46 583.38 M 291.44 579.39 C 289.94 582.21 290.17 585.62 290.42 588.72 C 291.54 589.61 292.52 589.48 293.34 588.31 C 294.73 586.16 294.59 583.37 294.22 580.95 C 294.32 579.57 292.46 578.14 291.44 579.39 M 478.50 580.85 C 479.11 583.22 479.75 585.58 480.41 587.94 C 478.90 591.29 477.96 595.02 479.37 598.59 C 479.85 598.56 480.81 598.51 481.29 598.48 C 481.81 596.13 482.47 593.80 483.71 591.73 C 486.27 587.63 482.41 583.32 481.00 579.51 C 480.37 579.85 479.13 580.52 478.50 580.85 M 244.06 587.84 C 244.57 588.17 245.60 588.82 246.11 589.15 C 248.44 587.87 250.22 585.56 248.92 582.83 C 246.40 583.47 244.91 585.50 244.06 587.84 M 295.51 585.30 C 295.17 588.30 294.84 591.45 295.58 594.42 C 297.09 595.43 299.25 594.68 299.96 593.05 C 302.03 589.75 299.43 586.14 298.37 582.99 C 297.34 583.60 295.61 583.81 295.51 585.30 M 491.44 589.84 C 494.38 589.71 495.79 587.03 495.69 584.35 C 492.31 583.58 490.81 587.03 491.44 589.84 M 495.95 594.09 C 498.42 592.30 503.71 588.50 499.94 585.55 C 496.89 586.90 494.56 590.81 495.95 594.09 M 260.03 592.03 C 262.38 591.94 266.43 590.09 264.73 587.25 C 261.87 586.83 259.80 589.28 260.03 592.03 M 269.29 587.21 C 267.64 588.44 266.03 592.58 269.01 593.03 C 270.81 592.48 271.84 590.70 272.19 588.96 C 273.11 587.16 270.39 585.69 269.29 587.21 M 280.20 588.99 C 279.20 592.51 274.78 594.02 274.99 597.86 C 277.44 596.97 279.85 596.00 282.28 595.08 C 282.93 592.68 282.69 590.15 280.20 588.99 M 303.71 591.63 C 301.69 593.51 301.46 596.41 301.08 598.98 C 304.88 599.65 307.15 595.55 306.66 592.25 C 306.02 591.11 304.75 591.11 303.71 591.63 M 469.00 591.03 C 467.58 593.31 466.95 595.92 466.47 598.54 C 465.68 598.56 464.89 598.59 464.11 598.63 C 463.28 600.93 462.58 603.28 462.00 605.66 C 463.34 606.01 464.69 606.37 466.04 606.73 C 466.40 604.80 466.75 602.87 467.11 600.95 C 468.13 601.99 469.16 603.04 470.18 604.11 C 471.23 603.85 472.26 603.55 473.29 603.21 C 475.43 599.76 477.56 595.69 476.41 591.52 C 475.47 591.36 474.52 591.28 473.57 591.27 C 473.33 594.13 473.06 596.98 472.80 599.85 C 472.13 599.86 470.79 599.90 470.12 599.92 C 470.81 597.20 471.36 594.45 471.64 591.66 C 470.98 591.50 469.66 591.19 469.00 591.03 M 290.29 595.04 C 290.37 596.60 290.47 598.16 290.57 599.74 C 292.13 599.75 294.17 599.14 293.60 597.12 C 293.94 595.03 291.63 595.39 290.29 595.04 M 438.74 595.63 C 436.14 597.11 438.51 602.02 441.31 600.44 C 442.95 599.14 442.58 596.86 442.89 595.03 C 441.49 595.19 440.09 595.27 438.74 595.63 M 324.25 596.33 C 322.39 597.28 324.58 599.69 325.94 600.05 C 327.22 599.61 327.59 598.28 328.16 597.22 C 326.89 596.99 325.39 594.92 324.25 596.33 M 421.98 598.13 C 420.87 600.38 423.21 601.91 425.01 602.55 C 427.20 601.06 427.99 598.66 427.96 596.11 C 425.79 595.57 422.60 595.31 421.98 598.13 M 310.00 598.96 C 309.09 600.88 306.46 603.84 309.12 605.40 C 312.64 604.45 314.76 600.84 314.80 597.34 C 312.99 597.24 310.80 596.86 310.00 598.96 M 335.08 602.94 C 336.20 602.81 337.32 602.68 338.45 602.56 C 338.56 601.40 338.68 600.25 338.81 599.11 C 338.12 599.02 336.75 598.84 336.06 598.75 C 334.34 599.48 335.14 601.54 335.08 602.94 M 344.36 599.45 C 344.10 600.63 343.88 601.83 343.72 603.04 C 344.25 604.32 345.70 604.60 346.83 605.14 C 347.62 603.22 347.81 601.20 346.98 599.27 C 346.33 599.32 345.02 599.41 344.36 599.45 M 377.92 605.24 C 379.08 604.63 380.24 604.04 381.40 603.45 C 381.86 603.96 382.78 605.00 383.24 605.52 C 382.90 603.30 382.40 601.11 381.76 598.97 C 378.65 598.91 376.71 602.53 377.92 605.24 M 406.67 599.35 C 404.98 603.28 402.32 606.88 401.93 611.26 C 405.37 611.37 406.99 607.75 408.08 605.06 C 408.12 603.07 407.20 601.23 406.67 599.35 M 458.22 607.64 C 461.67 606.94 462.20 601.74 460.95 598.85 C 458.38 600.59 455.93 605.10 458.22 607.64 M 317.19 600.30 C 315.93 601.97 315.19 603.93 314.98 606.02 C 318.38 606.56 320.48 603.54 319.73 600.42 C 319.09 600.39 317.83 600.33 317.19 600.30 M 408.91 609.23 C 411.86 610.45 413.75 607.25 415.22 605.23 C 416.11 603.84 417.67 601.21 415.05 600.71 C 412.07 602.74 410.22 605.94 408.91 609.23 M 449.94 605.11 C 451.08 604.92 452.21 604.66 453.34 604.36 C 454.56 602.97 453.11 599.61 451.11 600.90 C 449.07 601.49 449.94 603.58 449.94 605.11 M 323.01 605.36 C 325.53 606.11 328.12 606.77 330.78 606.69 C 331.59 601.87 323.09 600.02 323.01 605.36 M 369.40 603.32 C 368.48 604.22 368.27 605.54 368.18 606.78 C 370.71 608.86 374.42 603.60 370.97 602.52 C 370.58 602.72 369.79 603.12 369.40 603.32 M 418.44 605.96 C 418.64 606.73 419.05 608.25 419.26 609.02 C 422.44 608.62 425.57 604.48 422.09 602.14 C 420.84 603.39 419.63 604.67 418.44 605.96 M 362.31 604.30 C 360.16 605.18 359.91 609.24 362.95 608.35 C 365.73 607.94 365.02 602.80 362.31 604.30 M 426.48 605.41 C 425.38 606.86 425.87 608.63 426.85 610.00 C 428.68 608.68 430.15 606.97 431.15 604.96 C 429.67 604.33 427.57 603.83 426.48 605.41 M 352.12 606.14 C 350.99 607.24 348.62 609.21 351.10 610.24 C 353.89 610.57 355.51 607.89 356.74 605.85 C 355.29 604.74 353.41 604.89 352.12 606.14 M 431.96 611.13 C 435.85 612.22 437.38 608.05 437.94 605.07 C 437.19 604.94 435.69 604.69 434.94 604.57 C 433.72 606.64 432.69 608.83 431.96 611.13 M 439.29 609.88 C 441.94 610.68 443.11 607.88 444.06 606.02 C 441.64 603.74 437.49 607.28 439.29 609.88 M 338.75 609.31 C 340.60 610.72 342.13 608.51 343.28 607.31 C 342.68 606.86 341.48 605.97 340.88 605.53 C 339.60 606.31 336.59 607.71 338.75 609.31 Z" />
<path fill="#e8c49a" opacity="1.00" d=" M 406.01 524.70 C 411.85 527.06 413.87 534.38 412.93 540.18 C 409.35 540.82 407.86 537.22 406.26 534.77 C 404.27 531.77 405.01 527.91 406.01 524.70 Z" />
<path fill="#e8c49a" opacity="1.00" d=" M 399.42 532.58 C 400.11 532.39 401.50 532.01 402.20 531.82 C 404.93 534.56 403.47 538.19 402.23 541.25 C 399.55 539.10 398.65 535.88 399.42 532.58 Z" />
<path fill="#e8c49a" opacity="1.00" d=" M 368.92 577.03 C 372.50 575.34 376.55 575.22 380.39 574.49 C 379.18 576.42 377.93 578.33 376.53 580.14 C 374.12 583.49 370.42 585.51 366.65 586.99 C 367.58 583.71 367.82 580.26 368.92 577.03 Z" />
</g>
<g id="#c8a37fff">
<path fill="#c8a37f" opacity="1.00" d=" M 179.07 521.80 C 180.41 521.41 181.75 521.04 183.09 520.67 C 184.22 521.32 185.35 521.98 186.49 522.64 C 186.52 523.50 186.55 524.36 186.58 525.23 C 185.26 525.61 183.94 526.01 182.62 526.42 C 181.03 525.20 179.53 523.82 179.07 521.80 Z" />
<path fill="#c8a37f" opacity="1.00" d=" M 187.17 537.02 C 189.21 535.93 191.26 534.86 193.33 533.82 C 193.14 535.72 193.36 537.75 192.62 539.56 C 191.46 541.51 189.61 542.91 187.99 544.46 C 187.07 543.77 186.16 543.09 185.24 542.42 C 185.89 540.61 186.53 538.81 187.17 537.02 Z" />
</g>
<g id="#d3af8aff">
<path fill="#d3af8a" opacity="1.00" d=" M 204.40 533.71 C 201.72 529.97 202.53 524.10 207.01 522.14 C 210.00 524.61 209.23 528.74 209.87 532.16 C 208.08 532.78 206.30 533.50 204.40 533.71 Z" />
<path fill="#d3af8a" opacity="1.00" d=" M 322.68 528.93 C 325.32 527.75 327.95 526.54 330.59 525.36 C 329.57 527.64 328.13 529.70 326.55 531.64 C 326.69 533.43 326.86 535.21 327.03 537.01 C 326.69 537.47 326.01 538.37 325.67 538.83 C 325.17 538.73 324.16 538.54 323.66 538.44 C 322.40 535.42 321.09 532.10 322.68 528.93 Z" />
<path fill="#d3af8a" opacity="1.00" d=" M 220.26 555.10 C 222.16 557.03 223.59 559.33 224.55 561.87 C 224.04 563.69 224.05 567.18 221.26 566.73 C 217.94 563.91 218.05 558.60 220.26 555.10 Z" />
<path fill="#d3af8a" opacity="1.00" d=" M 242.56 572.89 C 243.13 572.78 244.28 572.57 244.85 572.46 C 245.68 572.91 246.53 573.35 247.38 573.79 C 246.98 575.59 246.58 577.41 246.19 579.23 C 245.59 579.39 244.39 579.71 243.79 579.87 C 243.31 577.55 242.91 575.22 242.56 572.89 Z" />
</g>
<g id="#d3b08aff">
<path fill="#d3b08a" opacity="1.00" d=" M 341.66 525.06 C 344.22 524.38 346.75 523.53 349.38 523.13 C 347.31 525.75 344.78 528.22 341.18 528.14 C 341.33 527.11 341.50 526.08 341.66 525.06 Z" />
<path fill="#d3b08a" opacity="1.00" d=" M 439.29 609.88 C 437.49 607.28 441.64 603.74 444.06 606.02 C 443.11 607.88 441.94 610.68 439.29 609.88 Z" />
<path fill="#d3b08a" opacity="1.00" d=" M 338.75 609.31 C 336.59 607.71 339.60 606.31 340.88 605.53 C 341.48 605.97 342.68 606.86 343.28 607.31 C 342.13 608.51 340.60 610.72 338.75 609.31 Z" />
</g>
<g id="#d0ad88ff">
<path fill="#d0ad88" opacity="1.00" d=" M 334.78 525.45 C 335.41 525.22 336.68 524.75 337.31 524.52 L 338.74 524.71 C 338.28 527.38 337.38 529.95 336.24 532.41 C 335.51 532.31 334.07 532.12 333.34 532.03 C 333.83 529.84 334.32 527.65 334.78 525.45 Z" />
<path fill="#d0ad88" opacity="1.00" d=" M 445.15 529.72 C 447.26 528.69 449.59 528.10 451.21 530.27 C 451.09 531.04 450.83 532.57 450.71 533.34 C 448.79 532.24 446.90 531.07 445.15 529.72 Z" />
<path fill="#d0ad88" opacity="1.00" d=" M 301.95 552.92 C 303.39 553.87 304.81 554.85 306.21 555.87 C 304.90 556.67 303.53 557.55 301.92 557.15 C 301.70 555.74 301.71 554.33 301.95 552.92 Z" />
<path fill="#d0ad88" opacity="1.00" d=" M 224.23 578.75 C 224.82 576.08 225.51 573.45 226.33 570.86 C 228.74 573.16 231.30 575.31 234.13 577.09 C 234.70 575.27 235.28 573.45 235.85 571.64 C 237.21 572.25 238.59 572.82 239.98 573.39 C 239.61 576.22 239.20 579.05 238.79 581.88 C 236.91 582.66 235.03 583.43 233.14 584.19 C 232.05 582.57 231.12 580.80 229.68 579.47 C 227.89 579.02 226.05 578.93 224.23 578.75 Z" />
<path fill="#d0ad88" opacity="1.00" d=" M 362.31 604.30 C 365.02 602.80 365.73 607.94 362.95 608.35 C 359.91 609.24 360.16 605.18 362.31 604.30 Z" />
</g>
<g id="#c29c7dff">
<path fill="#c29c7d" opacity="1.00" d=" M 414.30 533.02 C 413.05 530.37 411.08 527.23 413.23 524.50 C 413.80 527.20 416.31 530.36 414.30 533.02 Z" />
</g>
<g id="#caa784ff">
<path fill="#caa784" opacity="1.00" d=" M 436.76 526.12 C 437.15 525.81 437.94 525.20 438.33 524.90 C 440.10 525.74 441.71 526.86 443.21 528.13 C 442.99 528.88 442.57 530.39 442.36 531.15 C 439.81 530.35 438.19 528.23 436.76 526.12 Z" />
<path fill="#caa784" opacity="1.00" d=" M 544.31 565.79 C 546.66 568.02 545.83 571.63 543.06 573.08 C 542.60 572.75 541.67 572.08 541.21 571.74 C 541.81 569.55 542.80 567.50 544.31 565.79 Z" />
<path fill="#caa784" opacity="1.00" d=" M 303.71 591.63 C 304.75 591.11 306.02 591.11 306.66 592.25 C 307.15 595.55 304.88 599.65 301.08 598.98 C 301.46 596.41 301.69 593.51 303.71 591.63 Z" />
<path fill="#caa784" opacity="1.00" d=" M 426.48 605.41 C 427.57 603.83 429.67 604.33 431.15 604.96 C 430.15 606.97 428.68 608.68 426.85 610.00 C 425.87 608.63 425.38 606.86 426.48 605.41 Z" />
</g>
<g id="#cba884ff">
<path fill="#cba884" opacity="1.00" d=" M 427.35 528.34 C 431.53 526.40 431.97 535.43 428.02 535.26 C 425.42 533.96 426.33 530.42 427.35 528.34 Z" />
<path fill="#cba884" opacity="1.00" d=" M 474.66 552.07 C 476.55 551.03 478.26 548.27 480.67 549.31 C 481.27 551.01 480.96 552.82 480.89 554.59 C 479.10 554.53 477.33 554.48 475.55 554.44 C 475.33 553.85 474.88 552.67 474.66 552.07 Z" />
<path fill="#cba884" opacity="1.00" d=" M 559.70 558.06 C 559.50 555.50 560.91 553.35 562.84 551.84 C 566.16 553.83 562.81 560.66 559.70 558.06 Z" />
<path fill="#cba884" opacity="1.00" d=" M 521.33 572.59 C 521.18 570.36 522.37 566.35 525.29 567.59 C 527.08 570.26 524.23 573.38 521.33 572.59 Z" />
<path fill="#cba884" opacity="1.00" d=" M 513.30 574.74 C 512.86 571.96 513.93 569.28 516.94 568.76 C 519.24 571.47 516.68 575.39 513.30 574.74 Z" />
<path fill="#cba884" opacity="1.00" d=" M 503.36 579.74 C 499.22 578.41 501.85 572.94 505.38 573.03 C 506.13 575.21 507.29 577.31 507.54 579.64 C 507.35 581.25 505.94 582.18 504.71 583.02 C 504.26 581.92 503.80 580.82 503.36 579.74 Z" />
<path fill="#cba884" opacity="1.00" d=" M 520.21 574.08 C 522.02 574.82 523.90 575.47 525.54 576.59 C 526.03 577.84 525.63 579.23 525.66 580.55 C 523.11 580.63 520.57 580.67 518.02 580.62 C 517.86 578.19 518.79 575.99 520.21 574.08 Z" />
<path fill="#cba884" opacity="1.00" d=" M 291.44 579.39 C 292.46 578.14 294.32 579.57 294.22 580.95 C 294.59 583.37 294.73 586.16 293.34 588.31 C 292.52 589.48 291.54 589.61 290.42 588.72 C 290.17 585.62 289.94 582.21 291.44 579.39 Z" />
<path fill="#cba884" opacity="1.00" d=" M 478.50 580.85 C 479.13 580.52 480.37 579.85 481.00 579.51 C 482.41 583.32 486.27 587.63 483.71 591.73 C 482.47 593.80 481.81 596.13 481.29 598.48 C 480.81 598.51 479.85 598.56 479.37 598.59 C 477.96 595.02 478.90 591.29 480.41 587.94 C 479.75 585.58 479.11 583.22 478.50 580.85 Z" />
<path fill="#cba884" opacity="1.00" d=" M 295.51 585.30 C 295.61 583.81 297.34 583.60 298.37 582.99 C 299.43 586.14 302.03 589.75 299.96 593.05 C 299.25 594.68 297.09 595.43 295.58 594.42 C 294.84 591.45 295.17 588.30 295.51 585.30 Z" />
<path fill="#cba884" opacity="1.00" d=" M 260.03 592.03 C 259.80 589.28 261.87 586.83 264.73 587.25 C 266.43 590.09 262.38 591.94 260.03 592.03 Z" />
<path fill="#cba884" opacity="1.00" d=" M 469.00 591.03 C 469.66 591.19 470.98 591.50 471.64 591.66 C 471.36 594.45 470.81 597.20 470.12 599.92 C 470.79 599.90 472.13 599.86 472.80 599.85 C 473.06 596.98 473.33 594.13 473.57 591.27 C 474.52 591.28 475.47 591.36 476.41 591.52 C 477.56 595.69 475.43 599.76 473.29 603.21 C 472.26 603.55 471.23 603.85 470.18 604.11 C 469.16 603.04 468.13 601.99 467.11 600.95 C 466.75 602.87 466.40 604.80 466.04 606.73 C 464.69 606.37 463.34 606.01 462.00 605.66 C 462.58 603.28 463.28 600.93 464.11 598.63 C 464.89 598.59 465.68 598.56 466.47 598.54 C 466.95 595.92 467.58 593.31 469.00 591.03 Z" />
<path fill="#cba884" opacity="1.00" d=" M 438.74 595.63 C 440.09 595.27 441.49 595.19 442.89 595.03 C 442.58 596.86 442.95 599.14 441.31 600.44 C 438.51 602.02 436.14 597.11 438.74 595.63 Z" />
<path fill="#cba884" opacity="1.00" d=" M 421.98 598.13 C 422.60 595.31 425.79 595.57 427.96 596.11 C 427.99 598.66 427.20 601.06 425.01 602.55 C 423.21 601.91 420.87 600.38 421.98 598.13 Z" />
<path fill="#cba884" opacity="1.00" d=" M 310.00 598.96 C 310.80 596.86 312.99 597.24 314.80 597.34 C 314.76 600.84 312.64 604.45 309.12 605.40 C 306.46 603.84 309.09 600.88 310.00 598.96 Z" />
<path fill="#cba884" opacity="1.00" d=" M 350.75 597.59 C 352.68 598.08 354.62 598.57 356.56 599.01 C 355.51 600.35 354.56 601.86 352.99 602.67 C 351.45 601.41 351.29 599.35 350.75 597.59 Z" />
<path fill="#cba884" opacity="1.00" d=" M 335.08 602.94 C 335.14 601.54 334.34 599.48 336.06 598.75 C 336.75 598.84 338.12 599.02 338.81 599.11 C 338.68 600.25 338.56 601.40 338.45 602.56 C 337.32 602.68 336.20 602.81 335.08 602.94 Z" />
<path fill="#cba884" opacity="1.00" d=" M 377.92 605.24 C 376.71 602.53 378.65 598.91 381.76 598.97 C 382.40 601.11 382.90 603.30 383.24 605.52 C 382.78 605.00 381.86 603.96 381.40 603.45 C 380.24 604.04 379.08 604.63 377.92 605.24 Z" />
<path fill="#cba884" opacity="1.00" d=" M 458.22 607.64 C 455.93 605.10 458.38 600.59 460.95 598.85 C 462.20 601.74 461.67 606.94 458.22 607.64 Z" />
<path fill="#cba884" opacity="1.00" d=" M 317.19 600.30 C 317.83 600.33 319.09 600.39 319.73 600.42 C 320.48 603.54 318.38 606.56 314.98 606.02 C 315.19 603.93 315.93 601.97 317.19 600.30 Z" />
<path fill="#cba884" opacity="1.00" d=" M 408.91 609.23 C 410.22 605.94 412.07 602.74 415.05 600.71 C 417.67 601.21 416.11 603.84 415.22 605.23 C 413.75 607.25 411.86 610.45 408.91 609.23 Z" />
<path fill="#cba884" opacity="1.00" d=" M 352.12 606.14 C 353.41 604.89 355.29 604.74 356.74 605.85 C 355.51 607.89 353.89 610.57 351.10 610.24 C 348.62 609.21 350.99 607.24 352.12 606.14 Z" />
<path fill="#cba884" opacity="1.00" d=" M 431.96 611.13 C 432.69 608.83 433.72 606.64 434.94 604.57 C 435.69 604.69 437.19 604.94 437.94 605.07 C 437.38 608.05 435.85 612.22 431.96 611.13 Z" />
</g>
<g id="#caa884ff">
<path fill="#caa884" opacity="1.00" d=" M 369.29 529.28 C 372.45 530.32 370.82 535.54 368.00 536.25 C 366.24 537.22 365.08 535.30 363.96 534.33 C 365.44 532.39 366.82 530.07 369.29 529.28 Z" />
<path fill="#caa884" opacity="1.00" d=" M 350.73 534.75 C 351.53 533.02 353.43 532.42 355.05 531.74 C 355.46 534.49 355.21 538.47 352.02 539.41 C 349.30 539.44 349.96 536.39 350.73 534.75 Z" />
<path fill="#caa884" opacity="1.00" d=" M 335.48 535.29 C 336.28 534.25 337.83 534.38 338.96 533.92 C 339.01 535.52 339.01 537.14 338.96 538.76 C 337.68 538.78 336.39 538.80 335.12 538.82 C 335.19 537.63 335.31 536.46 335.48 535.29 Z" />
<path fill="#caa884" opacity="1.00" d=" M 448.53 593.08 C 449.53 592.92 451.53 592.59 452.54 592.43 C 452.59 595.28 452.08 598.38 449.01 599.44 C 448.08 597.40 447.88 595.22 448.53 593.08 Z" />
</g>
<g id="#d7b48dff">
<path fill="#d7b48d" opacity="1.00" d=" M 310.52 534.10 C 313.33 532.73 316.25 531.60 319.17 530.49 C 317.63 533.25 315.17 535.24 312.26 536.41 C 311.82 535.83 310.95 534.68 310.52 534.10 Z" />
</g>
<g id="#d2af8aff">
<path fill="#d2af8a" opacity="1.00" d=" M 442.33 532.40 C 443.56 531.62 444.87 532.88 445.33 533.99 C 444.60 534.77 443.49 536.81 442.24 535.78 C 440.61 535.21 440.71 532.92 442.33 532.40 Z" />
<path fill="#d2af8a" opacity="1.00" d=" M 467.65 585.22 C 469.63 584.29 471.63 583.40 473.60 582.46 C 473.58 584.98 473.20 587.49 472.62 589.95 C 469.67 590.09 468.55 587.58 467.65 585.22 Z" />
</g>
<g id="#d2af89ff">
<path fill="#d2af89" opacity="1.00" d=" M 474.93 539.95 C 471.90 539.49 469.20 537.83 468.28 534.79 C 469.47 534.87 470.67 534.99 471.88 535.15 C 473.95 535.98 474.83 537.81 474.93 539.95 Z" />
<path fill="#d2af89" opacity="1.00" d=" M 217.92 568.76 C 219.75 568.82 221.55 569.21 223.24 569.93 C 223.13 573.34 221.66 576.54 218.82 578.53 C 217.64 575.40 217.71 572.04 217.92 568.76 Z" />
<path fill="#d2af89" opacity="1.00" d=" M 344.36 599.45 C 345.02 599.41 346.33 599.32 346.98 599.27 C 347.81 601.20 347.62 603.22 346.83 605.14 C 345.70 604.60 344.25 604.32 343.72 603.04 C 343.88 601.83 344.10 600.63 344.36 599.45 Z" />
</g>
<g id="#d1ae89ff">
<path fill="#d1ae89" opacity="1.00" d=" M 464.80 540.90 C 463.92 538.79 464.69 536.77 465.92 535.00 C 466.73 536.23 467.55 537.48 468.35 538.73 C 467.70 539.60 467.06 540.49 466.43 541.38 L 464.80 540.90 Z" />
<path fill="#d1ae89" opacity="1.00" d=" M 508.46 583.38 C 508.09 580.54 509.42 576.51 512.93 576.97 C 512.91 579.47 511.79 584.62 508.46 583.38 Z" />
<path fill="#d1ae89" opacity="1.00" d=" M 369.40 603.32 C 369.79 603.12 370.58 602.72 370.97 602.52 C 374.42 603.60 370.71 608.86 368.18 606.78 C 368.27 605.54 368.48 604.22 369.40 603.32 Z" />
</g>
<g id="#cba984ff">
<path fill="#cba984" opacity="1.00" d=" M 311.07 538.11 C 312.52 538.05 314.49 537.23 315.19 539.09 C 315.13 539.81 315.01 541.24 314.95 541.96 C 313.81 541.85 312.70 541.68 311.60 541.44 C 311.38 540.33 311.21 539.22 311.07 538.11 Z" />
</g>
<g id="#cda983ff">
<path fill="#cda983" opacity="1.00" d=" M 211.01 546.50 C 211.77 546.25 213.29 545.74 214.05 545.49 C 214.31 546.06 214.82 547.20 215.08 547.77 C 215.33 549.85 215.49 551.95 215.62 554.04 C 214.17 552.98 212.49 552.12 211.41 550.66 C 211.02 549.30 211.10 547.88 211.01 546.50 Z" />
</g>
<g id="#d1ae88ff">
<path fill="#d1ae88" opacity="1.00" d=" M 291.91 555.68 C 293.93 555.00 295.98 554.39 298.05 553.85 C 297.81 557.59 296.25 561.01 294.16 564.06 C 292.32 562.41 291.07 560.28 290.43 557.90 C 290.80 557.35 291.54 556.23 291.91 555.68 Z" />
</g>
<g id="#c9a783ff">
<path fill="#c9a783" opacity="1.00" d=" M 554.43 559.43 C 555.07 558.20 557.13 557.75 557.49 559.44 C 557.95 561.97 555.55 563.60 554.00 565.17 C 553.14 563.31 552.99 561.05 554.43 559.43 Z" />
</g>
<g id="#caa783ff">
<path fill="#caa783" opacity="1.00" d=" M 481.02 563.21 C 484.42 563.19 486.55 559.47 489.98 560.46 C 489.24 562.43 487.36 563.50 485.99 564.98 C 485.69 566.31 485.46 567.67 485.28 569.04 C 482.79 568.06 481.61 565.66 481.02 563.21 Z" />
<path fill="#caa783" opacity="1.00" d=" M 545.55 565.39 C 544.70 563.31 545.76 561.22 547.90 560.59 C 548.40 561.01 549.39 561.84 549.89 562.26 C 548.94 563.83 547.91 566.84 545.55 565.39 Z" />
<path fill="#caa783" opacity="1.00" d=" M 492.07 562.11 C 492.53 562.39 493.47 562.97 493.93 563.26 C 494.20 566.08 492.43 568.10 489.90 569.06 C 488.64 566.40 489.62 563.62 492.07 562.11 Z" />
<path fill="#caa783" opacity="1.00" d=" M 293.52 571.01 C 293.50 568.25 296.37 564.46 298.78 567.83 C 298.23 570.01 295.77 573.97 293.52 571.01 Z" />
<path fill="#caa783" opacity="1.00" d=" M 527.12 572.85 C 527.43 570.61 527.11 567.30 529.92 566.59 C 533.51 567.01 530.48 570.78 529.89 572.75 C 529.20 572.77 527.81 572.82 527.12 572.85 Z" />
<path fill="#caa783" opacity="1.00" d=" M 491.44 589.84 C 490.81 587.03 492.31 583.58 495.69 584.35 C 495.79 587.03 494.38 589.71 491.44 589.84 Z" />
<path fill="#caa783" opacity="1.00" d=" M 495.95 594.09 C 494.56 590.81 496.89 586.90 499.94 585.55 C 503.71 588.50 498.42 592.30 495.95 594.09 Z" />
<path fill="#caa783" opacity="1.00" d=" M 269.29 587.21 C 270.39 585.69 273.11 587.16 272.19 588.96 C 271.84 590.70 270.81 592.48 269.01 593.03 C 266.03 592.58 267.64 588.44 269.29 587.21 Z" />
<path fill="#caa783" opacity="1.00" d=" M 280.20 588.99 C 282.69 590.15 282.93 592.68 282.28 595.08 C 279.85 596.00 277.44 596.97 274.99 597.86 C 274.78 594.02 279.20 592.51 280.20 588.99 Z" />
<path fill="#caa783" opacity="1.00" d=" M 323.01 605.36 C 323.09 600.02 331.59 601.87 330.78 606.69 C 328.12 606.77 325.53 606.11 323.01 605.36 Z" />
</g>
<g id="#ecdcb0ff">
<path fill="#ecdcb0" opacity="1.00" d=" M 352.03 566.27 C 360.50 564.09 369.34 565.49 377.89 563.76 C 393.36 562.89 408.96 562.97 424.36 564.83 C 414.81 567.58 404.74 565.03 395.00 564.95 C 389.30 564.63 383.69 566.04 377.99 565.92 C 372.97 565.76 368.08 567.32 363.05 567.01 C 356.53 566.65 350.44 569.43 344.06 570.28 C 343.69 574.88 344.03 579.51 343.53 584.11 C 343.09 578.96 343.48 573.75 342.70 568.62 C 345.64 567.28 348.92 567.06 352.03 566.27 Z" />
</g>
<g id="#cba883ff">
<path fill="#cba883" opacity="1.00" d=" M 532.60 574.45 C 531.93 571.46 532.80 566.04 536.98 566.96 C 536.43 569.54 536.08 574.74 532.60 574.45 Z" />
</g>
<g id="#aa706dff">
<path fill="#aa706d" opacity="1.00" d=" M 380.39 574.49 C 387.68 572.71 396.13 572.37 402.35 577.25 C 401.70 579.87 401.30 582.63 400.02 585.04 C 398.74 586.49 396.85 587.21 395.20 588.17 C 389.81 588.48 383.95 589.34 378.92 586.90 C 376.42 585.61 376.71 582.51 376.53 580.14 C 377.93 578.33 379.18 576.42 380.39 574.49 Z" />
</g>
<g id="#cdaa85ff">
<path fill="#cdaa85" opacity="1.00" d=" M 484.88 577.19 C 486.12 576.75 487.38 576.35 488.62 575.90 C 490.09 577.59 491.72 579.20 492.82 581.18 C 492.70 583.56 490.27 584.60 488.67 585.94 C 487.88 582.83 486.67 579.85 484.88 577.19 Z" />
</g>
<g id="#d8b58eff">
<path fill="#d8b58e" opacity="1.00" d=" M 366.65 586.99 C 370.42 585.51 374.12 583.49 376.53 580.14 C 376.71 582.51 376.42 585.61 378.92 586.90 C 383.95 589.34 389.81 588.48 395.20 588.17 C 392.57 589.90 390.66 592.44 388.91 595.01 C 392.17 594.82 395.42 594.58 398.68 594.29 C 399.80 597.07 401.27 599.79 401.72 602.79 C 401.67 604.89 400.32 606.75 398.75 608.05 C 396.10 608.05 393.56 607.12 391.03 606.47 C 391.43 604.30 391.96 602.16 392.59 600.05 C 392.13 600.22 391.21 600.54 390.75 600.71 C 390.15 603.51 390.27 607.06 387.15 608.34 C 386.60 608.00 385.52 607.33 384.98 607.00 C 385.71 605.64 386.45 604.29 387.18 602.93 C 384.82 599.98 384.41 596.17 383.19 592.73 C 377.86 590.35 371.57 591.35 366.05 589.30 C 366.20 588.72 366.50 587.56 366.65 586.99 Z" />
</g>
<g id="#d1ad88ff">
<path fill="#d1ad88" opacity="1.00" d=" M 244.06 587.84 C 244.91 585.50 246.40 583.47 248.92 582.83 C 250.22 585.56 248.44 587.87 246.11 589.15 C 245.60 588.82 244.57 588.17 244.06 587.84 Z" />
</g>
<g id="#cdaa86ff">
<path fill="#cdaa86" opacity="1.00" d=" M 456.79 590.40 C 458.68 589.49 460.59 588.63 462.50 587.74 C 462.51 589.54 462.69 591.39 462.28 593.17 C 461.16 593.75 460.03 594.30 458.88 594.80 C 458.17 593.33 457.48 591.86 456.79 590.40 Z" />
</g>
<g id="#c9a682ff">
<path fill="#c9a682" opacity="1.00" d=" M 290.29 595.04 C 291.63 595.39 293.94 595.03 293.60 597.12 C 294.17 599.14 292.13 599.75 290.57 599.74 C 290.47 598.16 290.37 596.60 290.29 595.04 Z" />
</g>
<g id="#d4b08aff">
<path fill="#d4b08a" opacity="1.00" d=" M 324.25 596.33 C 325.39 594.92 326.89 596.99 328.16 597.22 C 327.59 598.28 327.22 599.61 325.94 600.05 C 324.58 599.69 322.39 597.28 324.25 596.33 Z" />
</g>
<g id="#c9a683ff">
<path fill="#c9a683" opacity="1.00" d=" M 406.67 599.35 C 407.20 601.23 408.12 603.07 408.08 605.06 C 406.99 607.75 405.37 611.37 401.93 611.26 C 402.32 606.88 404.98 603.28 406.67 599.35 Z" />
</g>
<g id="#d2ae89ff">
<path fill="#d2ae89" opacity="1.00" d=" M 449.94 605.11 C 449.94 603.58 449.07 601.49 451.11 600.90 C 453.11 599.61 454.56 602.97 453.34 604.36 C 452.21 604.66 451.08 604.92 449.94 605.11 Z" />
</g>
<g id="#ceac87ff">
<path fill="#ceac87" opacity="1.00" d=" M 418.44 605.96 C 419.63 604.67 420.84 603.39 422.09 602.14 C 425.57 604.48 422.44 608.62 419.26 609.02 C 419.05 608.25 418.64 606.73 418.44 605.96 Z" />
</g>
</svg>
