<?xml version="1.0" encoding="UTF-8" ?>
<!DOCTYPE svg PUBLIC "-//W3C//DTD SVG 1.1//EN" "http://www.w3.org/Graphics/SVG/1.1/DTD/svg11.dtd">
<svg width="599pt" height="379pt" viewBox="0 0 599 379" version="1.1" xmlns="http://www.w3.org/2000/svg">
<g id="#ffffffff">
<path fill="#ffffff" opacity="1.00" d=" M 96.75 145.75 C 105.17 145.75 113.59 145.75 122.01 145.75 C 120.96 175.61 123.75 205.53 121.16 235.35 C 120.59 240.90 120.56 246.74 117.78 251.75 C 112.93 262.04 102.40 268.61 91.48 270.70 C 80.06 272.80 67.74 271.29 57.63 265.36 C 50.33 261.13 44.40 254.24 42.18 246.01 C 40.95 241.86 40.88 237.49 41.03 233.20 C 49.45 230.95 58.05 229.44 66.69 228.39 C 65.24 237.63 71.89 247.28 81.02 249.25 C 86.86 250.69 93.20 246.52 94.80 240.88 C 99.49 209.35 95.68 177.45 96.75 145.75 Z" />
<path fill="#ffffff" opacity="1.00" d=" M 145.48 184.09 C 145.53 171.31 145.48 158.53 145.50 145.75 C 154.33 145.75 163.16 145.75 171.98 145.75 C 172.21 154.16 172.47 162.58 171.99 170.99 C 172.17 190.94 171.52 210.91 172.67 230.85 C 172.76 236.32 175.92 241.43 180.31 244.56 C 186.49 249.03 194.59 250.46 202.01 249.03 C 207.80 247.88 213.51 244.65 216.25 239.24 C 218.60 234.87 218.27 229.80 218.52 225.02 C 219.66 198.61 218.49 172.18 218.75 145.75 C 227.26 145.72 235.78 145.88 244.29 145.47 C 242.82 178.93 247.10 212.69 241.66 245.94 C 238.33 255.28 230.48 262.45 221.73 266.75 C 207.20 273.63 189.95 274.25 174.77 269.13 C 164.00 265.52 154.06 258.12 149.32 247.58 C 145.15 238.63 146.29 228.52 145.58 218.95 C 145.50 207.33 144.88 195.70 145.48 184.09 Z" />
<path fill="#ffffff" opacity="1.00" d=" M 266.75 145.75 C 275.33 145.75 283.91 145.75 292.49 145.75 C 292.51 180.42 292.49 215.09 292.51 249.76 C 313.50 249.74 334.50 249.75 355.50 249.75 C 355.50 256.75 355.50 263.75 355.50 270.75 C 325.92 270.74 296.33 270.75 266.75 270.75 C 266.75 229.08 266.75 187.42 266.75 145.75 Z" />
<path fill="#ffffff" opacity="1.00" d=" M 369.00 146.02 C 378.24 145.81 387.47 145.51 396.72 145.48 C 396.79 187.32 396.72 229.15 396.75 270.99 C 387.50 270.95 378.26 270.64 369.01 270.50 C 368.80 244.66 369.38 218.84 369.26 193.01 C 368.74 177.36 369.11 161.68 369.00 146.02 Z" />
<path fill="#ffffff" opacity="1.00" d=" M 416.75 145.75 C 445.26 145.75 473.76 145.75 502.27 145.75 C 501.96 152.75 501.96 159.75 502.27 166.75 C 482.76 166.75 463.26 166.75 443.75 166.75 C 443.75 176.33 443.75 185.91 443.75 195.50 C 460.58 195.63 477.42 195.95 494.25 195.51 C 494.25 202.59 494.25 209.67 494.25 216.75 C 477.42 216.75 460.58 216.75 443.75 216.75 C 443.74 234.75 443.75 252.75 443.75 270.75 C 434.75 270.75 425.75 270.74 416.75 270.75 C 416.74 229.09 416.75 187.42 416.75 145.75 Z" />
</g>
</svg>
